<svg xmlns="http://www.w3.org/2000/svg" viewBox="0 0 89.33 104.41"><defs><style>.cls-1{fill:#1dc0d6;}.cls-2{fill:#303;}</style></defs><title>icono-cartilla</title><g id="Capa_2" data-name="Capa 2"><g id="Home"><path class="cls-1" d="M23.43,48.12c-3.69-3.21-7-6-10.19-8.93-1.15-1.06-1.81-1.11-3,0-3.16,3-6.49,5.73-10.17,8.94v-2.5C.06,31.29.11,17,0,2.63,0,.38.7,0,2.74,0,9.05.12,15.36.07,21.67,0c1.23,0,1.79.2,1.79,1.63C23.41,16.92,23.43,32.19,23.43,48.12Z"/><path class="cls-2" d="M89.33,59.92q0,17.42,0,34.85c0,6.31-3.35,9.63-9.69,9.63H19.74c-6.19,0-9.48-3.32-9.48-9.55q0-24.55,0-49.12c0-.94-.55-2.22,1.37-2.27s1.56,1.25,1.56,2.33q0,24.21,0,48.42c0,5.34,1.79,7.11,7.19,7.11H79.11c5.45,0,7.16-1.69,7.16-7.08,0-22.38,0-44.76,0-67.13,0-2.11-.5-2.9-2.7-2.72a74.63,74.63,0,0,1-7.48,0c-5.06-.08-8.46-3.41-8.62-8.5-.09-2.73-.12-5.46,0-8.19.07-1.64-.47-2.09-2.1-2.08-12.24.06-24.48,0-36.72,0-.92,0-2.1.44-2.05-1.33,0-1.17.29-1.64,1.56-1.63q20.58,0,41.17,0a2.89,2.89,0,0,1,2.19,1.11c5.6,5.86,11.18,11.74,16.84,17.55a3.76,3.76,0,0,1,.91,3Q89.32,42.14,89.33,59.92ZM70.59,7.19c0,3.5-.06,6.3,0,9.09a4.87,4.87,0,0,0,4.31,5c2.87.3,5.8.07,9.21.07Z"/><path class="cls-1" d="M49.71,59H77.5c1,0,2.18-.35,2.16,1.49s-1.2,1.45-2.21,1.45H21.63c-1,0-2,.29-2-1.39s1-1.57,2.08-1.57Z"/><path class="cls-1" d="M48.7,82.82q13.32,0,26.63,0c1,0,2.22-.47,2.25,1.41s-1.1,1.53-2.16,1.53H21.71c-1.07,0-2.15.27-2.11-1.55s1.29-1.38,2.25-1.39Q35.28,82.8,48.7,82.82Z"/><path class="cls-1" d="M46.34,93.72H21.59c-1,0-2,.21-2-1.44s.83-1.51,1.91-1.51H70.79c1,0,2-.22,2,1.42,0,1.81-1.12,1.52-2.18,1.52Z"/><path class="cls-1" d="M41,66.92H60.36c1,0,2-.18,2,1.45s-.88,1.5-1.94,1.5q-19.41,0-38.82,0c-1,0-2,.15-2-1.47s.88-1.49,1.94-1.49C28,66.93,34.48,66.92,41,66.92Z"/><path class="cls-1" d="M33.71,77.82c-4.13,0-8.26,0-12.38,0-1.08,0-1.72-.12-1.72-1.48s.62-1.48,1.7-1.48q12.38,0,24.76,0c1.07,0,1.72.1,1.72,1.47s-.61,1.5-1.71,1.49C42,77.8,37.83,77.82,33.71,77.82Z"/></g></g></svg>