<svg xmlns="http://www.w3.org/2000/svg" viewBox="0 0 76.67 91.15"><defs><style>.cls-1{fill:#303;}.cls-2{fill:#1dc0d6;}</style></defs><title>icono.campana</title><g id="Capa_2" data-name="Capa 2"><g id="Home"><path class="cls-1" d="M53.19,46.59c-4.84,0-9.67,0-14.51,0-4.69,0-8.2-2.84-8.33-7.39-.33-10.78-.46-21.58.08-32.37A7.33,7.33,0,0,1,37.66.17Q53.34-.15,69,.13C73.3.21,76.59,4,76.62,8.35c.06,9.9-.05,19.8,0,29.69,0,4.62-2.65,8.16-8.64,8.5C63.1,46.81,58.13,46.59,53.19,46.59Zm1-29.52c0,4.57,0,9.05,0,13.52,0,.89-.44,2.21,1.22,2.21s1.28-1.26,1.28-2.19c0-4.59.07-9.18,0-13.78,0-1,.89-2.76-1.23-2.79a6,6,0,0,0-4.84,2.49c-.37.46.18,1.26,1.1,1.08C52.4,17.46,52.93,16.62,54.14,17.07Z"/><path class="cls-1" d="M27.31,22.72c-2.63.66-4.8.74-6.3-2.36-1-2.07-3.4-2.45-5.66-1.68-2.47.84-3.77,2.77-3.29,5.21s-.35,3.81-2.12,5.39A23.89,23.89,0,0,0,3.49,55.74c1.28,3.48,2.61,6.94,4,10.39a19.92,19.92,0,0,1,.42,13.53c-.7,2.21-.83,4.23,1,5.88s3.7,1.36,5.71.59q23.27-8.94,46.52-17.85a4.78,4.78,0,0,0,3.49-4.12c.25-2.31-1-3.68-2.86-4.91-3.86-2.57-7.3-5.57-8.59-10.31,1.63-1,1.91.6,2.44,1.38a27.59,27.59,0,0,0,8.51,8.29c2,1.19,2.64,3.26,2.47,5.54a6.8,6.8,0,0,1-4.71,6c-5.2,2.09-10.46,4-15.69,6a51.73,51.73,0,0,1-5,1.91c-2.93.78-4.64,1.93-4.63,5.56,0,3.38-2.75,5.44-5.86,6.67-3.42,1.35-6.73,1.06-9.19-1.69-1.67-1.86-3-2-5.11-1-3,1.37-6.12,1.72-8.85-.69S5.2,81.59,6.17,78.55c1.45-4.52.57-8.81-1-13.14C2.87,59.36-.2,53.55,0,46.74A26,26,0,0,1,8,28.39c1.42-1.4,2.3-2.53,2.09-4.8a6.3,6.3,0,0,1,4.52-6.76,6.59,6.59,0,0,1,7.84,2.11c1,1.26,2,2.34,3.83,2.1C27.41,20.89,27.2,22,27.31,22.72Zm7.19,58c-4,1.56-7.68,3-11.33,4.38-.54.2-1.25.35-1.08,1a2.46,2.46,0,0,0,1.15,1.46,8.73,8.73,0,0,0,7.78.1C33.55,86.32,34.71,84.17,34.5,80.69Z"/><path class="cls-2" d="M8.64,43.86a1,1,0,0,1-.55-1.34,21.63,21.63,0,0,1,8.05-11.63c.45-.33,1-.68,1.42,0A1.22,1.22,0,0,1,17.35,32a21.39,21.39,0,0,0-7.7,11.1A.88.88,0,0,1,8.64,43.86Z"/><path class="cls-2" d="M9.18,51.32c.11.81.19,1.85-.63,1.7-1.64-.31-1-2-1.26-3.06-.17-.71-.18-2,.83-1.73C9.65,48.64,8.62,50.42,9.18,51.32Z"/><path class="cls-2" d="M54.14,17.07c-1.21-.45-1.74.39-2.48.54-.92.18-1.47-.62-1.1-1.08A6,6,0,0,1,55.4,14c2.12,0,1.21,1.79,1.23,2.79.1,4.6.06,9.19,0,13.78,0,.93.34,2.19-1.28,2.19s-1.21-1.32-1.22-2.21C54.12,26.12,54.14,21.64,54.14,17.07Z"/></g></g></svg>