<svg xmlns="http://www.w3.org/2000/svg" viewBox="0 0 209.98 67"><defs><style>.cls-1{fill:#1dc0d6;}</style></defs><title>01-brand</title><g id="Capa_2" data-name="Capa 2"><g id="Home"><path class="cls-1" d="M138.6,53.58c0,2.13,0,4.26,0,6.39-.09,4.21-2.67,6.92-6.6,7s-6.74-2.64-6.93-6.76c-.14-3.11,0-6.23,0-9.34,0-.65,0-1.31,0-2,0-1.06.08-2.38-1.42-2.41S122,47.89,122,49c0,2.37,0,4.75,0,7.12,0,1.4,0,2.79,0,4.18-.13,4-2.82,6.71-6.66,6.67a6.61,6.61,0,0,1-6.75-6.65c-.07-3.68,0-7.37,0-11.06,0-1.19.23-2.79-1.57-2.75s-1.42,1.69-1.44,2.84c0,3.35,0,6.71,0,10.07-.06,4.73-2.71,7.62-6.86,7.55s-6.71-3-6.73-7.7c0-3.61,0-7.21,0-10.81,0-6,2.6-10.51,8.12-12.86s11.2-2,16.14,2.07a20.42,20.42,0,0,1,2.07,2.09c.55.59,1.08,1.52,2,.7s0-1.5-.46-2.12c-2.07-2.79-1.86-3.44,1.62-3.93,10.84-1.51,17.89,6,17.29,14.48C138.51,50.47,138.6,52,138.6,53.58Z"/><path class="cls-1" d="M137.12,36.19a13,13,0,0,0-11.52-4.42c-1.43.14-1.63-.51-1.62-1.69,0-9.34,0-18.68,0-28,0-.73-.09-1.65.68-2,1-.41,1.44.55,1.95,1.13,1.59,1.77,3.17,3.54,4.67,5.38A8.2,8.2,0,0,0,138,9.67c5.73,0,11.47,0,17.2,0,1.1,0,1.79-.16,2.16-1.41a3.37,3.37,0,0,1,3.54-2.49,3.54,3.54,0,0,1,3.43,2.34,3.29,3.29,0,0,1-1.11,4.17,2.9,2.9,0,0,0-1.14,2.75c0,2.62.05,5.24,0,7.87C162,29.08,158,33,151.85,33.12c-3.85.06-7.7,0-11.55,0C137.54,33.14,137.54,33.14,137.12,36.19ZM136.24,21a3.91,3.91,0,0,0,3.69-3.85A3.72,3.72,0,0,0,136,13.57a3.59,3.59,0,0,0-3.53,3.63A3.84,3.84,0,0,0,136.24,21Z"/><path class="cls-1" d="M98.91,13.41c0,2.78,0,5.57,0,8.36a11.86,11.86,0,0,1-5.65,10.55c-6.83,4.68-18.1,4.7-25,.08a12,12,0,0,1-5.77-10.5c0-6,0-12,0-17.94,0-.88-.25-2,.71-2.45C64.4,1,65,2.12,65.67,2.76c5.93,5.61,5.4,7.23,13.9,5.47a13.62,13.62,0,0,1,5.86.39,6.23,6.23,0,0,0,6.46-1.95c1.28-1.38,2.65-2.68,4-4,.63-.6,1.19-1.59,2.22-1.22s.77,1.51.78,2.36C98.93,7,98.91,10.21,98.91,13.41ZM90,14.7a3.93,3.93,0,0,0-3.88,3.94A4,4,0,0,0,90,22.38a3.84,3.84,0,0,0,0-7.68ZM75.35,18.64a3.87,3.87,0,0,0-3.84-3.94,3.84,3.84,0,0,0,0,7.68A3.9,3.9,0,0,0,75.35,18.64Z"/><path class="cls-1" d="M34.05,54.68c0,1.89.07,3.77,0,5.65-.18,3.88-2.58,6.4-6.21,6.64a6.63,6.63,0,0,1-7.22-5.59c-.17-.79-.08-1.86-1.24-1.69s-.81,1.23-.87,2V62c-.1,5.31-.12,5.33-5.4,4.36A15.55,15.55,0,0,1,0,49.84C.38,41.26,6.32,35,14.81,34.36a23.38,23.38,0,0,1,6.36.2c8,1.52,12.58,6.82,12.87,15C34.11,51.25,34.05,53,34.05,54.68ZM20.51,50.41A3.35,3.35,0,0,0,17.1,47a3.38,3.38,0,0,0-3.18,3.39A3.45,3.45,0,0,0,17.21,54,3.48,3.48,0,0,0,20.51,50.41Z"/><path class="cls-1" d="M175,54.64c0,2,.08,4.1,0,6.15A6.32,6.32,0,0,1,168.87,67a6.58,6.58,0,0,1-7.14-5.07c-.09-.4-.07-.83-.19-1.21-.17-.58-.48-1.11-1.19-1-.56.09-.76.6-.78,1.11,0,1.23-.09,2.46,0,3.69.07,1.71-.71,2.26-2.38,2.24a15.86,15.86,0,0,1-16.09-15.56c-.25-9.4,6-16.34,15.18-16.84a24.2,24.2,0,0,1,6.84.41c7.32,1.67,11.71,7,11.93,14.5.05,1.8,0,3.6,0,5.4ZM158.29,47a3.29,3.29,0,0,0-3.4,3.37,3.34,3.34,0,1,0,6.68.14A3.34,3.34,0,0,0,158.29,47Z"/><path class="cls-1" d="M69.4,53.6c0,2.3.1,4.59,0,6.88A6.55,6.55,0,0,1,62.5,67c-3.83-.07-6.49-2.77-6.56-6.78-.06-3.61,0-7.21,0-10.81,0-1.55-.32-2.93-2.16-2.93s-2.18,1.37-2.17,2.92c0,3.6,0,7.2,0,10.8-.07,4-2.69,6.73-6.54,6.8a6.49,6.49,0,0,1-6.87-6.49C38,56.32,38,52.14,38.12,48c.26-7.4,4.28-12,11.6-13.37a21.22,21.22,0,0,1,8.06,0C65.21,36,69.16,40.66,69.41,48.2c.06,1.8,0,3.6,0,5.4Z"/><path class="cls-1" d="M192.22,43.25c0,5.49,0,11,0,16.47,0,4.39-2.63,7.22-6.6,7.27s-6.86-2.74-6.89-7q-.14-16.71,0-33.44a6.62,6.62,0,0,1,7-6.89c3.92.13,6.43,2.87,6.45,7.15,0,5.49,0,11,0,16.48Z"/><path class="cls-1" d="M210,43.51c0,5.48,0,11,0,16.46,0,4.29-2.55,6.92-6.57,7s-6.83-2.66-6.84-7q-.06-16.71,0-33.42a6.57,6.57,0,0,1,6.75-6.89c4,0,6.62,2.72,6.65,6.93C210,32.2,210,37.85,210,43.51Z"/><path class="cls-1" d="M87.42,50.55c0,3.19,0,6.38,0,9.57-.08,4-2.67,6.74-6.49,6.87a6.56,6.56,0,0,1-7-6.63c-.15-6.62,0-13.25,0-19.88,0-1.69.57-2.54,2.53-2.1a20.91,20.91,0,0,0,8.77,0c1.69-.35,2.25.29,2.24,1.86,0,3.43,0,6.87,0,10.3Z"/></g></g></svg>