<svg xmlns="http://www.w3.org/2000/svg" viewBox="0 0 212.01 39.71"><defs><style>.cls-1{fill:#1dc0d6;}</style></defs><title>02-brand</title><g id="Capa_2" data-name="Capa 2"><g id="Home"><path class="cls-1" d="M90.76,26.49a3.92,3.92,0,0,1-1,2.55,4.29,4.29,0,0,0-.65,1c-.42,1.52-1.52,1.67-2.82,1.45-.33-.05-.82.1-.8-.48a.78.78,0,0,1,.78-.79,1.66,1.66,0,0,0,1.58-1,2.28,2.28,0,0,0-.14-2.59c-.46-.61-.94-1.22-1.46-1.79A22.76,22.76,0,0,1,83.33,21a.81.81,0,0,0-1.18-.42,27.23,27.23,0,0,1-9.38,1.63c-.94.05-1.3.3-1.24,1.28a35.6,35.6,0,0,0,.24,4.73c.3,1.52-.61,2.75-1,4.09-.18.58-2.71.95-3.16.56s.09-.72.09-1.12a6.62,6.62,0,0,1-.68-.06c-.41-.06-.83-.18-.9-.66a.76.76,0,0,1,.69-.86c1.15-.22,1.25-1.07,1.29-2a11.63,11.63,0,0,1,0-1.32c.56-3.33-1-5.81-3.24-8a8.74,8.74,0,0,1-2.55-5.12c-.35-2.17-.86-4.31-1.31-6.46a2.34,2.34,0,0,0-1-1.52c-.66-.46-1.27-1-2-1.41-1.25-.73-1.32-1.84-1.16-3.07.08-.6.29-1,1-.73a9.8,9.8,0,0,0,1.62.28A1.91,1.91,0,0,0,60.76.77c2.4-1.44,4.64-.83,6.13,1.58,1.74,2.82,3.7,5.4,7.06,6.49a21,21,0,0,0,4.78.63c2.92.26,5.85,0,8.79.34,1.7.21,3.43-.91,4.94-1.92,1-.65,1.94-1.32,2.92-2a5.3,5.3,0,0,1,3.46-.87c.28,0,.64,0,.74.32s-.15.54-.38.73-.73.62-1.11.91a14.41,14.41,0,0,0-2.28,2.07,6.81,6.81,0,0,1-2.85,2,12.64,12.64,0,0,0-1.3.59c-1.82.9-1.83.93-.84,2.68a5.49,5.49,0,0,1,.78,2.72,49.62,49.62,0,0,0,.82,6.2,3.37,3.37,0,0,0,1.35,2.19,2,2,0,0,1,.87,1.35,24,24,0,0,1-.08,5.49c-.06.42-.07.95-.68,1s-1.62.22-2.22-.36.15-.8.43-1.05A2.56,2.56,0,0,0,92.43,28c-.33-.4-.67-.79-1-1.15A2.8,2.8,0,0,0,90.76,26.49Z"/><path class="cls-1" d="M41.92,13.45a2.31,2.31,0,0,0,.12-.27c.52-1.66.52-1.61,2.27-1.64.83,0,.95.31.94,1,0,4.6,0,9.19,0,13.79a60.26,60.26,0,0,1-.15,7.6,6.09,6.09,0,0,1-5.8,5.5c-3.34.25-5.9-1.36-6.83-4.21-.28-.87-.09-1.14.8-1a11.29,11.29,0,0,0,1.54,0,1.8,1.8,0,0,1,1.9.85c1,1.48,3.48,1.09,4.18-.55a8,8,0,0,0,.41-3.93,4.93,4.93,0,0,1-4.43,1.74c-2.66-.31-4.43-2.18-4.73-5.27a51.86,51.86,0,0,1,0-10.57c.43-4,3.42-6,7-5A5.45,5.45,0,0,1,41.92,13.45Zm-.6,8.45a18.94,18.94,0,0,0-.39-5c-.4-1.46-1.1-2.08-2.31-2.09a2.24,2.24,0,0,0-2.34,2.07,25.24,25.24,0,0,0,0,10.06A2.19,2.19,0,0,0,38.57,29c1.26,0,2-.61,2.37-2.16A18.88,18.88,0,0,0,41.32,21.9Z"/><path class="cls-1" d="M198.72,34.39c1.18,0,2.35,0,3.52,0,.42,0,.55.26.72.55a2.44,2.44,0,0,0,2.65,1.13,2.3,2.3,0,0,0,2-1.78,9.46,9.46,0,0,0,.23-3.64,4.82,4.82,0,0,1-3.28,1.78A5.08,5.08,0,0,1,199,28.79a9.25,9.25,0,0,1-.55-3.13c0-4.48,0-9,0-13.45,0-.74.23-1,.94-.92a11.22,11.22,0,0,0,2.09,0c.79-.07,1,.24,1,1,0,3.72,0,7.43,0,11.14a11.43,11.43,0,0,0,.47,3.59,2.31,2.31,0,0,0,2.3,1.86A2.34,2.34,0,0,0,207.44,27a10.52,10.52,0,0,0,.47-3.25c0-3.83,0-7.65,0-11.47,0-.78.21-1,1-1,.94.08,2.17-.28,2.77.19s.21,1.79.21,2.72c0,6,0,12.06,0,18.09a10.54,10.54,0,0,1-.25,2.51c-.74,3.22-3.29,5-6.88,4.91A6,6,0,0,1,198.72,34.39Z"/><path class="cls-1" d="M9.41,13c0-3.07,0-5.85,0-8.64,0-.8.16-1.14,1-1a9.36,9.36,0,0,0,2,0c.82-.09.95.26.94,1q0,13.56,0,27.12c0,.76-.19,1.09-1,1a2.09,2.09,0,0,0-.66,0c-.94.19-1.35-.25-1.42-1.14a4.15,4.15,0,0,0-.14-.61c-.4-.1-.47.21-.63.38a5.22,5.22,0,0,1-8.8-1.74,6.36,6.36,0,0,1-.46-1.8A53.91,53.91,0,0,1,.35,16c.53-3.69,3.58-5.6,6.86-4.55A5.51,5.51,0,0,1,9.41,13ZM4,22c0,1.77-.16,3.66.5,5.46a2.26,2.26,0,0,0,2.83,1.63,2.45,2.45,0,0,0,1.78-2.29,35,35,0,0,0,0-9.31A5,5,0,0,0,8.7,16a2.06,2.06,0,0,0-2.24-1.24c-1.08.08-1.79.8-2.14,2.19A21.32,21.32,0,0,0,4,22Z"/><path class="cls-1" d="M122.89,13.26a8.85,8.85,0,0,0,.29-1.16c.07-.66.43-.81,1-.81,2,0,2,0,2,2,0,6,0,12,0,18,0,.93-.19,1.19-1.18,1.27-1.54.11-2.1-.53-2-2.27a5.28,5.28,0,0,1-5.27,2.53c-2.73-.3-4.6-2.29-4.89-5.41a57.53,57.53,0,0,1,0-10.9c.41-4.16,3.8-6.44,7.46-5.2A5.45,5.45,0,0,1,122.89,13.26Zm-6.24,8.62a21,21,0,0,0,.4,5.13c.28,1.07.77,2,2.06,2.14a2.3,2.3,0,0,0,2.74-2.08,31,31,0,0,0,.31-7.88,8.25,8.25,0,0,0-.59-3.22,2.29,2.29,0,0,0-4.22-.05,6.05,6.05,0,0,0-.35,1A22.52,22.52,0,0,0,116.65,21.88Z"/><path class="cls-1" d="M178.26,13.08c.08-.09.15-.14.17-.2.58-1.61.58-1.58,2.3-1.59.7,0,.94.17.94.91q0,9.71,0,19.4c0,.7-.2.92-.86.85s-1.35.14-1.84-.12-.27-1.15-.68-1.82a5,5,0,0,1-3.91,2.26,5.1,5.1,0,0,1-5.11-2.56,6,6,0,0,1-.88-2.58,52.34,52.34,0,0,1,.08-11.87,5.4,5.4,0,0,1,7.35-4.5A6.11,6.11,0,0,1,178.26,13.08Zm-6.12,8.76A20.61,20.61,0,0,0,172.5,27c.43,1.57,1.14,2.2,2.46,2.19s1.93-.61,2.36-2.17a3.16,3.16,0,0,0,.13-.53,41.41,41.41,0,0,0,.09-8.33,5.63,5.63,0,0,0-.65-2.42,2.25,2.25,0,0,0-4,0,6.11,6.11,0,0,0-.54,1.54A22.12,22.12,0,0,0,172.14,21.84Z"/><path class="cls-1" d="M151.12,30.43a5.3,5.3,0,0,1-5.55,2.31c-2.72-.48-4.42-2.79-4.49-6.23-.09-3.68,0-7.35,0-11,0-1.14,0-2.28,0-3.42,0-.56.16-.74.74-.77,3.23-.15,3.23-.17,3.23,3q0,5.13,0,10.26a8.66,8.66,0,0,0,.45,2.81,2.25,2.25,0,0,0,2.31,1.83,2.31,2.31,0,0,0,2.35-1.8,9,9,0,0,0,.41-2.93c0-4,0-8,0-12,0-1,.29-1.21,1.23-1.19,2.76.06,2.77,0,2.77,2.73,0,5.81,0,11.61,0,17.42,0,.83-.22,1.16-1,1h-.22c-1.18.25-1.88-.16-2-1.42A2.63,2.63,0,0,0,151.12,30.43Z"/><path class="cls-1" d="M99.89,13.32A5.23,5.23,0,0,1,104.36,11a5,5,0,0,1,4.89,3.27,9.87,9.87,0,0,1,.7,3.65c0,4.56,0,9.12,0,13.68,0,.76-.25.93-.94.88a14.69,14.69,0,0,0-2.2,0c-.69,0-.86-.2-.86-.87,0-3.93,0-7.87,0-11.8a11,11,0,0,0-.46-3.37,2.29,2.29,0,0,0-2.3-1.86,2.34,2.34,0,0,0-2.4,1.86,7.85,7.85,0,0,0-.37,2.5c0,4.15,0,8.31,0,12.46,0,.89-.25,1.15-1.11,1.08s-2.12.28-2.66-.18-.21-1.79-.21-2.73c0-5.69,0-11.39,0-17.09,0-.88.17-1.23,1.13-1.18C99.14,11.36,99.14,11.3,99.89,13.32Z"/><path class="cls-1" d="M16.2,22a25.75,25.75,0,0,1,.19-5.82c.76-3.24,3.17-5,6.74-4.89a6,6,0,0,1,6,5.33,45.65,45.65,0,0,1,0,10.77c-.42,3.49-3.13,5.45-6.92,5.31a6.09,6.09,0,0,1-6-6C16.11,25.11,16.2,23.53,16.2,22Zm9.24.15c0-1,0-1.91,0-2.86a8.06,8.06,0,0,0-.63-3.1,2.17,2.17,0,0,0-2.18-1.37,2.15,2.15,0,0,0-2,1.45A6.58,6.58,0,0,0,20.16,18,40.86,40.86,0,0,0,20,24.19a10.37,10.37,0,0,0,.52,3.35,2.31,2.31,0,0,0,4.38,0,6.49,6.49,0,0,0,.31-1.17A19.76,19.76,0,0,0,25.44,22.1Z"/><path class="cls-1" d="M58.69,17.77a4.85,4.85,0,0,0-.66,0c-.79.09-1.24,0-1.33-1a2.16,2.16,0,0,0-2.37-2,2,2,0,0,0-2.28,1.63,2.41,2.41,0,0,0,1.45,2.79,15.84,15.84,0,0,0,2.61.83c4.1,1.33,5.84,4.8,4.43,8.87a6,6,0,0,1-.63,1.27c-1.37,2.11-4.56,3.05-7.54,2.26A6,6,0,0,1,47.75,27c-.07-.79.06-1.29,1-1.13a4,4,0,0,0,.77,0c1.14,0,2.24-.28,2.36,1.56C52,28.72,53.44,29.32,55,29.1A2.29,2.29,0,0,0,57,26.67a3,3,0,0,0-2.2-3.28c-.75-.28-1.55-.43-2.33-.66a5.79,5.79,0,0,1-4-8c1-2.62,4-4.06,7.23-3.42a5.86,5.86,0,0,1,4.94,5.21c.17,1-.06,1.39-1.09,1.23A5.17,5.17,0,0,0,58.69,17.77Z"/><path class="cls-1" d="M131.17,21.37c0-2.07,0-3.8,0-5.53,0-.7-.17-.94-.91-.94-1.71,0-1.71,0-1.71-1.76s0-1.82,1.76-1.82c.69,0,.88-.21.86-.88,0-1.58,0-3.16,0-4.74,0-.69.23-.89.88-.85,1,.07,2.26-.3,2.88.19s.17,1.86.21,2.83a26,26,0,0,1,0,2.65c0,.65.23.86.83.79h.22c.82.09,2-.41,2.38.21.42.78.14,1.93.17,2.91,0,.39-.21.51-.56.49h-.55c-2.48,0-2.5,0-2.47,2.55,0,3-.17,6,.15,9,.21,2,.69,2.48,2.73,2.74,0,0,.08,0,.11,0,1.34.72.27,1.94.57,2.89.18.55-.17.79-.74.72a8.16,8.16,0,0,0-1,0c-3.41-.09-5.16-1.7-5.62-5.11A58.79,58.79,0,0,1,131.17,21.37Z"/><path class="cls-1" d="M184.79,17.53c0-4.56,0-9.11,0-13.67,0-.75.17-1.07,1-1a16.19,16.19,0,0,0,2.31,0c.6,0,.74.2.74.75q0,14.06,0,28.12c0,.49-.11.69-.67.72-3.33.2-3.33.21-3.33-3.13Z"/><path class="cls-1" d="M195.8,17.64c0,4.59,0,9.18,0,13.77,0,.79-.15,1.14-1,1.05s-2.18.28-2.77-.2-.2-1.78-.21-2.72c0-8.53,0-17,0-25.57,0-.83.16-1.22,1.07-1.11a8.74,8.74,0,0,0,2,0c.81-.08,1,.26,1,1C195.78,8.45,195.8,13,195.8,17.64Z"/><path class="cls-1" d="M161,13.94A6.49,6.49,0,0,1,165.38,11c.68-.1,1,.07.86.78a1.82,1.82,0,0,0,0,.33,6.52,6.52,0,0,1-.06,2.08c-.28.72-1.21.37-1.82.61a4.4,4.4,0,0,0-2.78,3.79,44.08,44.08,0,0,0-.19,6.6c0,2.17,0,4.34,0,6.51,0,.57-.18.73-.75.75-3.23.11-3.23.13-3.23-3.12,0-5.63,0-11.25,0-16.87,0-.87.16-1.23,1.12-1.19,1.74.07,1.74,0,2.16,1.65C160.75,13.21,160.83,13.49,161,13.94Z"/></g></g></svg>