<svg xmlns="http://www.w3.org/2000/svg" viewBox="0 0 183.59 57.84"><defs><style>.cls-1{fill:#1dc0d6;}</style></defs><title>03-brand</title><g id="Capa_2" data-name="Capa 2"><g id="Home"><path class="cls-1" d="M0,8.87c.32-.18.23-.53.29-.79A9.58,9.58,0,0,1,8.72.18,18.87,18.87,0,0,1,17.41,1a1.09,1.09,0,0,1,.91,1.26c-.07,1.51,0,3,0,4.54,0,.5-.15.66-.65.68-1.19,0-2.37.14-3.55.24-.43,0-.62-.11-.56-.54V7.12c-.08-2-.09-2-2.07-2A4,4,0,0,0,7.23,8.33a11.19,11.19,0,0,0,.22,6.58c.8,2.33,2.56,2.67,4.66,2.22.21-.05.41-.1.41-.38,0-.74,0-1.48,0-2.22,0-.52-.5-.37-.76-.35-.91.06-1.19-.32-1.08-1.19a14.25,14.25,0,0,0,0-2c0-.38.13-.52.51-.52h8.56c.41,0,.49.2.49.55,0,.8,0,1.6,0,2.4,0,.46-.15.65-.59.66-.77,0-1,.46-1,1.18,0,1.36,0,2.73,0,4.1a.89.89,0,0,1-.52.92,14.65,14.65,0,0,1-12.61,1C2.62,20.21,1.08,17.79.36,14.79c-.08-.32,0-.71-.36-.93Z"/><path class="cls-1" d="M120.82,37c-3.41.06-6.82.15-10.24.16-.85,0-1,.27-1,1,0,6.18,0,12.36,0,18.53v1.11l-2.68-1.49c-.42-.23-.28-.62-.28-1,0-5.7,0-11.4,0-17.1,0-.85-.18-1.19-1.07-1.06s-1.75-.29-2.22.2-.14,1.47-.15,2.23c0,4.49,0,9,0,13.45v1c-.43.08-.67-.19-.94-.34-3.42-1.91-6.84-3.82-10.24-5.76a1.11,1.11,0,0,0-1.29,0q-5.15,2.92-10.32,5.8a1.32,1.32,0,0,1-.72.32c-.2-.3-.1-.63-.1-.94,0-5,0-10,0-15,0-.73-.18-1-.93-.94s-1.87-.38-2.39.17-.14,1.53-.14,2.32c0,5.2,0,10.39,0,15.59a1.2,1.2,0,0,1-.77,1.3c-.7.32-1.35.73-2.12,1.16,0-.41-.05-.72-.05-1,0-6.23,0-12.47,0-18.71,0-.68-.15-.89-.87-.9-3.44,0-6.89-.1-10.33-.16l0-.17c2.23,0,4.45,0,6.68,0h51.39l.62,0Z"/><path class="cls-1" d="M78.3,11.08c0,2.22,0,4.44,0,6.65,0,.57.42.55.74.52,1-.1,1.33.25,1.2,1.24-.11.75.23,1.78-.16,2.23s-1.51.16-2.3.17c-2.26,0-4.51,0-6.77,0-.57,0-.81-.13-.76-.74a16.82,16.82,0,0,0,0-2.13c0-.54.16-.77.69-.74.89.05,1.16-.37,1.15-1.25,0-4,0-8,0-12,0-.69-.12-1.07-.89-1-.59.07-.86-.17-.81-.81a11.7,11.7,0,0,0,0-2.05c-.06-.66.21-.78.81-.77q3.12,0,6.23,0a1.1,1.1,0,0,1,1.12.65c1.77,3.12,3.58,6.22,5.38,9.33l.48.79a.92.92,0,0,0,.14-.71c0-1.87,0-3.75,0-5.62,0-.62-.18-.87-.8-.8-.87.11-1.24-.22-1.11-1.14s-.32-1.83.16-2.32,1.51-.15,2.3-.16c2.23,0,4.46,0,6.69,0,.57,0,.79.13.75.74a11.58,11.58,0,0,0,0,2c0,.64-.21.86-.8.83-.83,0-1,.43-1,1.19,0,5.25,0,10.51,0,15.77,0,.75-.19,1-.93.92-1.3-.06-2.61-.05-3.92,0a1.28,1.28,0,0,1-1.33-.74C82.72,18,80.83,14.89,79,11.76c-.15-.25-.31-.49-.47-.74Z"/><path class="cls-1" d="M37.68,11.7c1.85.75,2.35,2.35,3.11,3.74a13.77,13.77,0,0,1,.8,1.58c.3.8.74,1.32,1.67,1.22.39,0,.5.18.49.55,0,.86,0,1.72,0,2.58,0,.46-.2.53-.6.53H34.43c-.42,0-.58-.13-.56-.56,0-.65,0-1.31,0-2s-.13-1.13.76-1.15c.44,0,.44-.43.28-.76-.45-.9-.9-1.8-1.4-2.68-.36-.64-1-.62-1.66-.59-.36,0-.28.32-.28.54,0,.83,0,1.66,0,2.5,0,.58-.09,1.17.81,1.07.22,0,.28.16.29.36a.91.91,0,0,1,0,.17c0,1,.31,2.19-.15,2.86s-1.72.17-2.63.19c-2,0-4,0-6,0-.59,0-.79-.15-.75-.74a15.28,15.28,0,0,0,0-2.14c0-.54.16-.76.7-.74.73,0,1.06-.3,1.06-1.07,0-4.13,0-8.25,0-12.38,0-.78-.47-.75-.91-.72-.72,0-.9-.27-.85-.94a18.92,18.92,0,0,0,0-2.13c0-.45.1-.63.59-.63C27.46.48,31.23.33,35,.52a9.82,9.82,0,0,1,3.53.85A5,5,0,0,1,41.7,6.29a5.16,5.16,0,0,1-3.13,5.05C38.36,11.44,38.13,11.52,37.68,11.7ZM32.49,4.92c-.26.17-.91-.35-.91.48,0,1.42,0,2.84,0,4.26,0,.3.12.4.41.44a2.33,2.33,0,0,0,2.89-2.34C35,6,34.25,5,32.49,4.92Z"/><path class="cls-1" d="M177.71,11.73c2.12,1.07,2.6,3.33,3.64,5.18.42.75.76,1.46,1.79,1.34.43-.05.45.24.45.57,0,.84,0,1.67,0,2.5,0,.49-.17.59-.62.58h-8.64c-.45,0-.64-.11-.62-.59s0-1.25,0-1.87-.13-1.18.8-1.22c.44,0,.38-.45.22-.77-.42-.85-.85-1.7-1.3-2.54a1.27,1.27,0,0,0-.89-.68c-.94-.22-1.13-.07-1.13.9s0,1.67,0,2.5c0,.42.08.7.58.66s.57.15.56.57c0,.83,0,1.67,0,2.5,0,.45-.18.54-.58.54H163.5c-.41,0-.58-.11-.57-.55,0-.8,0-1.61,0-2.41,0-.46.15-.66.6-.63.95,0,1.18-.46,1.17-1.34,0-3.95,0-7.9,0-11.85,0-.81-.27-1.07-1-1s-.85-.24-.8-.88c.06-.88-.28-2.06.16-2.58s1.73-.19,2.63-.2c3,0,5.94,0,8.91.08a9.56,9.56,0,0,1,3.71.84,5,5,0,0,1,3.2,5,5.12,5.12,0,0,1-3.2,5c-.19.09-.39.16-.58.24A.85.85,0,0,0,177.71,11.73Zm-3-4.23c0-1.92-.82-2.69-2.74-2.58-.35,0-.54.06-.54.48,0,1.39,0,2.78,0,4.16,0,.45.18.53.58.54C173.79,10.16,174.68,9.32,174.69,7.5Z"/><path class="cls-1" d="M101.69.43c2.1.08,4.57-.17,7,.41a8.4,8.4,0,0,1,6.77,7.25,14.36,14.36,0,0,1-.84,8c-1.69,3.94-4.92,5.65-9,5.81-3.24.13-6.48,0-9.71.05-.55,0-.74-.16-.7-.71a9.52,9.52,0,0,0,0-1.51c-.06-.83-.08-1.53,1.11-1.46.62,0,.67-.54.67-1.05,0-3,0-6,0-9,0-1,0-2,0-3,.06-.76-.16-1.13-.94-1.06s-.91-.25-.85-.92a15.58,15.58,0,0,0,0-2.05c0-.55.15-.72.7-.71C97.71.45,99.52.43,101.69.43Zm2,10.59v5.59c0,.31-.1.62.44.68a3.78,3.78,0,0,0,4.4-3,13.6,13.6,0,0,0,.18-5.82c-.45-2.61-1.7-3.6-4.33-3.58-.53,0-.71.12-.7.68C103.74,7.4,103.71,9.21,103.71,11Z"/><path class="cls-1" d="M140.69,10.21c0-1.69-.05-3.39,0-5.08,0-.8-.26-1.08-1-1s-.82-.2-.78-.82a18.27,18.27,0,0,0,0-2.22c0-.44.07-.64.58-.64,3.06,0,6.11,0,9.17,0,.45,0,.56.17.55.57,0,.78,0,1.55,0,2.32,0,.56-.19.76-.71.73-.89,0-1.18.39-1.18,1.25,0,3.21,0,6.42,0,9.62,0,1.84.74,2.64,2.36,2.72,1.81.09,2.66-.68,2.68-2.51,0-3.44,0-6.89,0-10.33,0-.61-.22-.79-.77-.75s-.74-.19-.7-.74c.07-.91-.36-2.09.16-2.67s1.73-.18,2.64-.2c1.93,0,3.86,0,5.79,0,.55,0,.73.15.69.7,0,.74,0,1.49,0,2.23,0,.44-.11.69-.58.66-1,0-1.18.5-1.17,1.35,0,2.94,0,5.88,0,8.83,0,4.74-2.58,7.6-7.33,8a14.25,14.25,0,0,1-5.91-.51c-3.06-1-4.54-3.27-4.6-7C140.67,13.24,140.69,11.73,140.69,10.21Z"/><path class="cls-1" d="M55.12.43c1.49,0,3,0,4.45,0a.84.84,0,0,1,1,.66C62.37,6.5,64.26,11.9,66.1,17.32c.2.59.43.9,1.09.86.49,0,.83.12.78.76-.08.95.3,2.18-.17,2.76s-1.78.17-2.71.19c-2.14,0-4.28,0-6.42,0-.83,0-1-.25-.94-1a8.46,8.46,0,0,0,0-1.51c-.05-.69,0-1.23.93-1.15.39,0,.56-.27.5-.66s-.1-.75-.66-.74c-1.37,0-2.73,0-4.1,0-.74,0-.67.58-.76,1-.12.56.42.42.66.4.72-.06.83.29.79.9a18.92,18.92,0,0,0,0,2.13c0,.44-.08.64-.58.63-2.79,0-5.58,0-8.37,0-.43,0-.57-.14-.55-.56,0-.8,0-1.61,0-2.41,0-.46.16-.64.61-.63.77,0,1.15-.42,1.37-1.14,1.27-4,2.54-8.09,3.85-12.12.23-.7.09-1-.61-.93s-1-.28-.89-1-.35-2,.15-2.49S51.75.48,52.63.44,54.29.43,55.12.43Zm1.5,6.1-.23,0-1.65,5.93c-.11.39.17.36.41.36h2.67c.33,0,.48,0,.37-.45C57.65,10.41,57.14,8.47,56.62,6.53Z"/><path class="cls-1" d="M127.38,21.89c-2.62,0-5.23,0-7.84,0-.53,0-.75-.11-.68-.68a7.59,7.59,0,0,0,0-1.43c-.05-.85-.15-1.68,1.15-1.58.44,0,.56-.4.58-.77,0-.68,0-1.36,0-2,0-3.41,0-6.83,0-10.24,0-.76-.19-1.14-1-1s-.88-.31-.84-.94a11.66,11.66,0,0,0,0-2c0-.63.17-.8.79-.79,3.38,0,6.77,0,10.16,0,1.69,0,3.38,0,5.07,0,.51,0,.66.15.65.65,0,1.58,0,3.15,0,4.73,0,.51-.17.67-.65.7-1.15,0-2.31.11-3.46.21-.54,0-.64-.16-.64-.65,0-1.35-.1-1.41-1.42-1.41-2.05,0-2.05,0-2.05,2s0,1.9,1.88,1.9c1.46,0,2.91,0,4.37,0,.55,0,.72.16.7.71,0,1.06,0,2.13,0,3.2,0,.59-.22.68-.73.67-1.84,0-3.68,0-5.52,0-.53,0-.74.13-.72.69q.06,1.6,0,3.21c0,.53.19.67.68.64.74,0,1.48,0,2.22,0s1.07-.25,1-1c0-.24,0-.48,0-.71-.08-.59.19-.7.72-.66,1.15.1,2.3.17,3.46.21.44,0,.63.14.62.62,0,1.73,0,3.45,0,5.17,0,.56-.24.61-.7.61Z"/><path class="cls-1" d="M113.65,31.06,115,27.63c.2-.53,1.61-.94,2-.57.2.18.21.52,0,.61-.54.2-.38.6-.36.95,0,1,.11,2.08.18,3.11,0,.2,0,.53.13.57.35.14.5.35.36.67s-.47.13-.72.16a2.35,2.35,0,0,1-.53,0c-.26,0-.59.14-.74-.15s0-.55.35-.66c0,0,.08-.16.08-.24V29.21l-.33,0c-.35.87-.69,1.74-1.05,2.61-.12.31-.17.67-.68.66s-.56-.31-.69-.65a16.55,16.55,0,0,0-1.21-2.65c-.06.9-.11,1.81-.16,2.71,0,.12,0,.28,0,.35.23.26.76.61.26.84a3.64,3.64,0,0,1-1.74,0c-.2,0-.19-.37-.11-.45.93-.8.43-1.92.65-2.88a6.49,6.49,0,0,0,.06-1.33c0-.17.06-.42,0-.51-.28-.27-.63-.55-.15-.87a1.65,1.65,0,0,1,1.77.42C112.74,28.58,113.15,29.71,113.65,31.06Z"/><path class="cls-1" d="M64.78,29.08V32a.46.46,0,0,0,.06.26c.5.9.5.9-.57.9-.23,0-.47,0-.71,0-.53,0-.46-.33-.27-.66,0-.06.17,0,.23-.11.31-.35.25-4.28-.11-4.59a.53.53,0,0,1-.19-.54c0-.3.3-.21.49-.23a1.42,1.42,0,0,1,1.71.85A15.53,15.53,0,0,0,67.52,31V28.1a.28.28,0,0,0,0-.09c-.14-.32-.92-.56-.41-.89A2.86,2.86,0,0,1,68.83,27a.33.33,0,0,1,.12.64c-.46.23-.34.57-.34.9,0,1.27,0,2.55,0,3.82,0,.26.18.67-.27.73s-.8.14-1.08-.36c-.72-1.25-1.5-2.47-2.25-3.7Z"/><path class="cls-1" d="M167.67,27.76a3.37,3.37,0,0,1,3.26-.45,1.49,1.49,0,0,1,.86,2.18,4.14,4.14,0,0,1-2.92,2.14A10.92,10.92,0,0,1,159.48,30a4.62,4.62,0,0,1-.5-.37c-.32-.29-.55,0-.76.13s0,.39.12.58.84.35.24.78c-.39.28-.8.83-1.31.11a8.9,8.9,0,0,0-.72-.81c.88-.65,1.73-1.25,2.53-1.9.44-.36.64,0,.9.19a11.71,11.71,0,0,0,6,2.76,7,7,0,0,0,4.06-.68A1.53,1.53,0,0,0,171.06,29a1.68,1.68,0,0,0-1.66-1.25A14.34,14.34,0,0,0,167.67,27.76Z"/><path class="cls-1" d="M14.92,27.88a3.4,3.4,0,0,0-1.58-.14A1.65,1.65,0,0,0,11.77,29a1.51,1.51,0,0,0,1,1.73,7,7,0,0,0,4.14.72,11.17,11.17,0,0,0,5.89-2.72c.48-.41.79-.46,1.26,0a8.38,8.38,0,0,0,1.57,1.16c.75.41.64.77.08,1.21-.22.17-.35.58-.68.47a2,2,0,0,1-.93-.64c-.15-.22.28-.39.42-.6s.46-.3.13-.56-.44-.44-.76-.14a4.62,4.62,0,0,1-.5.37A11,11,0,0,1,14,31.66a5,5,0,0,1-2.4-1.3,1.79,1.79,0,0,1,1.2-3.27,4.49,4.49,0,0,1,2.32.49Z"/><path class="cls-1" d="M57,30.32c.78.59.7,1.72,1.59,2.21.18.1.2.59-.29.6h-.89c-.87,0-.79,0-.57-.84.12-.51-.29-1-.65-1.39a.88.88,0,0,0-1.07-.11,1.21,1.21,0,0,0,0,1.57.6.6,0,0,1,.16.62c-.09.24-.36.13-.56.14a4.21,4.21,0,0,1-.71,0c-.25,0-.58.15-.72-.15s0-.52.33-.69c.11,0,.11-.37.11-.58,0-1.09,0-2.19,0-3.28,0-.2,0-.53-.11-.58-.35-.15-.45-.4-.31-.7S53.77,27,54,27c.62,0,1.24,0,1.86,0,.85,0,1.73.08,2,1.05A1.76,1.76,0,0,1,57,30.32Zm-2.08-1.54c0,1.13,0,1.13.61,1.14.92,0,1.36-.34,1.36-1.11,0-.95-.7-.92-1.35-1C54.6,27.73,55,28.42,54.89,28.78Z"/><path class="cls-1" d="M105.4,27c.56,0,1.13,0,1.69.11a1.41,1.41,0,0,1,1.28,1.08,1.6,1.6,0,0,1-.5,1.78c-.39.29-.44.46-.11.84s.47,1.33,1.16,1.73a.35.35,0,0,1-.27.62c-.29,0-.59,0-.89,0-.91,0-.82,0-.56-.83.14-.5-.28-1-.64-1.39s-1-.34-1.13-.08a1.39,1.39,0,0,0,.06,1.55c.31.43.39.75-.31.75h-1.07c-.19,0-.45.07-.49-.23s0-.42.24-.5c0,0,.07,0,.08,0,.29-.34.25-4.29-.1-4.6a.55.55,0,0,1-.19-.54c0-.29.3-.23.5-.23.42,0,.83,0,1.25,0Zm-.12,1.89c.18.34-.4,1.11.62,1.07s1.4-.4,1.37-1.15-.68-.9-1.32-1C105,27.72,105.34,28.37,105.28,28.86Z"/><path class="cls-1" d="M81.37,33.13h-.71c-.46,0-.47-.29-.33-.59a1.46,1.46,0,0,0-.46-1.7c-.35-.16-.9-.27-1.07,0a1.26,1.26,0,0,0,.07,1.47c.17.2.3.35.24.59s-.39.18-.6.2a3.47,3.47,0,0,1-.72,0c-.25,0-.58.14-.73-.15s0-.54.37-.67c.08,0,.1-.32.11-.49,0-1.18,0-2.37,0-3.56,0-.16.06-.39-.16-.46a.43.43,0,0,1-.32-.61c.1-.29.4-.19.62-.19.86,0,1.72,0,2.58,0a1.47,1.47,0,0,1,1.5,1.05A1.6,1.6,0,0,1,81.21,30c-.4.26-.33.42-.07.71.48.54.47,1.4,1.22,1.8a.35.35,0,0,1-.28.61C81.85,33.15,81.61,33.13,81.37,33.13Zm-2.08-3.2c1,0,1.44-.41,1.4-1.16,0-.94-.75-.94-1.4-1-1.12,0-.51.83-.62,1.29S78.6,30.09,79.29,29.93Z"/><path class="cls-1" d="M150.06,33.14h-.62c-1,0-1,0-.59-.93a1.32,1.32,0,0,0,.05-.53c0-1.06,0-2.13,0-3.19,0-.28.12-.6-.28-.75-.25-.1-.2-.36-.16-.55s.27-.19.44-.19c.86,0,1.72,0,2.58,0a2.41,2.41,0,0,1,2.32,2.28C154.13,31.9,152.91,33.14,150.06,33.14ZM152.68,30c0-1.52-.7-2.21-2.07-2.16-.36,0-.55.09-.54.5,0,1.15,0,2.3,0,3.46,0,.37.12.5.5.52C152,32.38,152.7,31.56,152.68,30Z"/><path class="cls-1" d="M118.92,29.55c-.2-.56.39-1.39-.41-2-.1-.07-.09-.43.06-.47a5.16,5.16,0,0,1,1.84-.06.27.27,0,0,1,.18.42c-1,1.12-.31,2.45-.47,3.68-.1.79.36,1.22,1.15,1.25s1.21-.4,1.23-1.29,0-1.83,0-2.75c0-.15,0-.36-.06-.43-.29-.23-.54-.46-.28-.86a5.68,5.68,0,0,1,1.84,0c.12.15.16.41,0,.49-.74.49-.39,1.22-.44,1.85s0,1.24,0,1.86a1.78,1.78,0,0,1-1.54,1.88c-2,.47-3.11-.35-3.13-2.4Z"/><path class="cls-1" d="M102.29,30.07c0,2.4-1.55,3.7-3.62,3.06l-.17-.06c-1.37-.53-2-2.73-1.31-4.51a2.68,2.68,0,0,1,3.52-1.5C101.74,27.45,102.29,28.5,102.29,30.07Zm-1.19,0c0-1.43-.55-2.23-1.51-2.21s-1.52.93-1.49,2.25.61,2.18,1.59,2.15S101.1,31.49,101.1,30.09Z"/><path class="cls-1" d="M38.27,33.14H36.58c-.17,0-.39,0-.46-.16a.41.41,0,0,1,.15-.55s.13,0,.16-.07c.31-.37.23-4.24-.13-4.59a.52.52,0,0,1-.17-.55c.06-.29.32-.21.51-.21h3.12c.25,0,.61-.09.55.34s.28.88-.25,1.1c-.29.11-.54.1-.72-.36s-.84-.21-1.28-.23-.26.37-.3.6c-.15.86.13,1.29,1.07,1.11a1.7,1.7,0,0,1,.45,0c.29,0,.67-.13.69.42s-.42.44-.74.47a2.57,2.57,0,0,1-.62,0c-.73-.12-1,.22-.84.88.07.33-.28.92.29.94s1.23.5,1.46-.45c.07-.28.32-.19.52-.18s.36.07.41.35c.17.92,0,1.16-.93,1.17Z"/><path class="cls-1" d="M75,33.14h-.78c-.6,0-.56-.47-.26-.66s.25-.46.16-.73-.34-.36-.63-.35-.59,0-.89,0c-.83,0-1,.32-.63,1.08.18.39.13.71-.42.67a4.82,4.82,0,0,1-.54,0c-.32-.06-.74.21-.94-.21s.36-.47.45-.72c.51-1.36,1-2.73,1.45-4.1,0-.06,0-.15,0-.17-.29-.28-.76-.6-.13-.91a1.62,1.62,0,0,1,2,.62c.46,1.31.92,2.62,1.39,3.93.07.2.14.39.22.58s.75.29.5.78S75.28,33,75,33.14ZM73,28c-.29.87-.51,1.51-.72,2.15,0,.16-.14.4.12.42a3,3,0,0,0,1.3-.08c.22-.1-.08-.58-.16-.87C73.38,29.16,73.2,28.69,73,28Z"/><path class="cls-1" d="M49.76,33.14H48.07c-.17,0-.39.06-.44-.18s-.09-.44.17-.53c.41-.12.32-.44.32-.72q0-1.65,0-3.3c0-.19.09-.49-.11-.57s-.49-.36-.34-.67.48-.15.73-.16c1,0,2,0,2.94,0,.29,0,.57,0,.5.41s.24.82-.24,1c-.27.11-.53.13-.73-.33s-1-.36-1.35-.21-.21.84-.23,1.28.43.36.71.38.65,0,1,0,.51.05.51.43-.14.47-.47.46a8.77,8.77,0,0,1-.89,0c-.73-.11-1,.21-.85.89.06.33-.26.92.31.93s1.23.52,1.43-.46c.06-.28.34-.18.53-.17s.35.1.39.36c.15,1,0,1.15-.94,1.16Z"/><path class="cls-1" d="M145,33.14h-1.78c-.54,0-.55-.48-.28-.62.52-.28.38-.68.38-1.06,0-1,0-2,0-3,0-.2,0-.54-.09-.57-.35-.13-.52-.35-.38-.67s.53-.17.8-.17c.95,0,1.9,0,2.85,0,.25,0,.61-.08.56.35s.28.87-.26,1.09c-.31.12-.51,0-.72-.37s-1-.34-1.36-.17-.21.84-.23,1.28.44.34.73.37.53,0,.8,0,.68-.14.69.41-.42.44-.74.47a2.35,2.35,0,0,1-.53,0c-.77-.13-1.13.16-1,1,.06.3-.23.85.3.86s1.21.49,1.45-.44c.09-.33.38-.19.6-.18s.3.19.33.42c.11,1,.05,1.09-1,1.09Z"/><path class="cls-1" d="M135.42,33.14a4.73,4.73,0,0,1-.53,0c-.19,0-.44.09-.5-.21s-.06-.41.13-.48c.46-.17.24-.46.15-.72s-.37-.34-.65-.33-.65,0-1,0c-.72,0-.89.38-.54,1,.19.35.28.71-.33.71H131c-.48,0-.53-.4-.34-.58.9-.82.89-2,1.35-3a9.09,9.09,0,0,0,.4-1.18c.06-.22.26-.39-.09-.66s-.34-.66.29-.72c1.5-.12,1.5-.13,2,1.28.42,1.15.82,2.29,1.24,3.44.07.21.15.52.31.6s.44.3.35.6-.44.18-.67.22A2.26,2.26,0,0,1,135.42,33.14Zm-1.8-4.91c-.38.3-.39.71-.51,1.06-.49,1.49-.48,1.49,1.24,1.23Z"/><path class="cls-1" d="M32.4,31.61l1.05-3.3c0-.14.1-.39,0-.42-.34-.23-.6-.67-.22-.8a4.11,4.11,0,0,1,1.75,0c.14,0,.16.37.06.47-1,.95-.94,2.3-1.43,3.44a9.36,9.36,0,0,0-.48,1.44c-.12.49-.3.74-.88.74s-.76-.23-.92-.71c-.41-1.33-.87-2.64-1.31-4-.08-.23-.13-.55-.29-.62-.32-.16-.52-.33-.4-.66s.51-.16.78-.2a2.15,2.15,0,0,1,.62,0c.25,0,.58-.13.74.13s0,.55-.29.7c-.15.08-.09.27-.05.41l1,3.38Z"/><path class="cls-1" d="M93.67,27c.63,0,1.25,0,1.87,0s.3.63.38,1-.19.5-.53.5c-.16,0-.34,0-.36-.18-.07-.68-.58-.41-1-.48-.78-.13-1,.18-1,1s.24.89.87.81c.35,0,.72,0,1.07,0s.44.19.44.5-.13.43-.43.42-.47,0-.71,0c-1.21,0-1.47.34-1.21,1.53.06.25.17.35.41.36s.28.24.28.45-.23.29-.44.29h-.89c-1,0-1,0-.56-.91a1.32,1.32,0,0,0,0-.53c0-1.09,0-2.19,0-3.29,0-.2.09-.49-.1-.57-.34-.15-.5-.36-.34-.68S92,27,92.25,27C92.72,27,93.2,27,93.67,27Z"/><path class="cls-1" d="M85.66,29.65l.69-1.35c.06-.14.19-.35.15-.4-.25-.29-.53-.68-.09-.85a2.28,2.28,0,0,1,1.48,0c.33.11.1.42-.1.73C87,29,86,30.13,86.06,31.69c0,.29-.13.67.39.74.22,0,.18.27.17.44s-.19.26-.37.26h-1.6c-.14,0-.31,0-.34-.19s0-.38.12-.49c.86-.57.56-1.35.23-2A8.12,8.12,0,0,0,83,27.7a.3.3,0,0,1-.08-.24c0-.14,0-.38.1-.39a5.74,5.74,0,0,1,1.94,0c.16,0,.17.3.1.38-.76.9.2,1.44.43,2.12C85.49,29.58,85.53,29.59,85.66,29.65Z"/><path class="cls-1" d="M139.21,27h1.6a.9.9,0,0,1,.89,1.35c-.11.25-.32.23-.52.26s-.38-.09-.38-.34c0-.51-.37-.44-.69-.44-.48,0-.35.38-.36.65,0,.95,0,1.9,0,2.84,0,.43-.3,1.07.54,1.14,0,0,.11.25.12.39s-.18.28-.36.28h-1.78c-.2,0-.34-.06-.33-.3s0-.39.22-.41c.55,0,.46-.43.46-.78,0-1,0-2.07,0-3.11,0-.26.13-.64-.33-.69s-.74-.1-.74.47c0,.27-.18.34-.42.3s-.42-.08-.48-.39c-.18-1,0-1.22,1-1.22Z"/><path class="cls-1" d="M44,27c.68,0,1.36,0,2,0,.31,0,.57.06.49.43s.31.93-.32,1.15c-.23.08-.57.16-.57-.28s-.33-.48-.67-.47-.38.36-.38.64c0,1.07,0,2.14,0,3.2,0,.35-.09.73.47.76.23,0,.2.25.2.42s-.19.28-.37.28H43.19c-.17,0-.38,0-.41-.22s-.08-.46.22-.49.45-.29.44-.62V28.42c0-.26,0-.57-.35-.59s-.7-.1-.7.42c0,.33-.18.4-.47.36a.45.45,0,0,1-.45-.43c-.15-1,0-1.18,1-1.18Z"/><path class="cls-1" d="M127.39,33.14h-1.6c-.17,0-.39.06-.45-.17s-.09-.45.16-.53c.42-.12.34-.43.34-.71q0-1.7,0-3.39c0-.17,0-.46-.09-.49-.34-.13-.53-.34-.37-.66s.53-.14.81-.18a1.62,1.62,0,0,1,.44,0c.3.06.7-.2.87.21s-.16.49-.41.66c-.09.06-.1.27-.1.41,0,1.16,0,2.32,0,3.48,0,.29,0,.59.41.52s1.09.38,1.28-.34c.11-.37.22-.47.57-.45s.34.37.38.64c.13.78-.14,1.15-1,1A8.68,8.68,0,0,0,127.39,33.14Z"/><path class="cls-1" d="M60.87,27c.17,0,.35,0,.53,0s.38-.05.44.19.06.43-.11.48c-.55.18-.38.61-.38,1q0,1.47,0,2.94c0,.31-.2.75.36.85a.16.16,0,0,1,.11.13c0,.19.13.5-.13.53A4.19,4.19,0,0,1,59.76,33a.38.38,0,0,1,.15-.58c.4-.14.31-.46.31-.74q0-1.65,0-3.3a1.29,1.29,0,0,0,0-.44C59.8,27,59.8,27,60.87,27Z"/><path class="cls-1" d="M62.09,36.83l0,.17c-3.26,0-6.51,0-9.76-.22a2.87,2.87,0,0,1-.71-.08h9.47A1.77,1.77,0,0,1,62.09,36.83Z"/><path class="cls-1" d="M120.82,37l0-.17a1.77,1.77,0,0,1,1-.12c3.1,0,6.19,0,9.29,0A90.67,90.67,0,0,1,120.82,37Z"/><path class="cls-1" d="M14.92,27.88l.24-.3A4.51,4.51,0,0,1,17.72,30,8.25,8.25,0,0,0,14.92,27.88Z"/><path class="cls-1" d="M167.37,28a12.26,12.26,0,0,0-2.23,2,3.69,3.69,0,0,1,2.21-2.32Z"/><path class="cls-1" d="M167.37,28l0-.29c.12-.06.24,0,.25.09S167.45,28,167.37,28Z"/></g></g></svg>