<svg xmlns="http://www.w3.org/2000/svg" viewBox="0 0 17.53 16"><defs><style>.cls-1{fill:#1dc0d6;}</style></defs><title>huella-perro</title><g id="Capa_2" data-name="Capa 2"><g id="Home"><path class="cls-1" d="M12.92,13.83c0,.15,0,.3,0,.45-.23,1.73-2.38,2.11-3.46,1.34a12.89,12.89,0,0,1-1.23-1A3.48,3.48,0,0,0,4.9,14c-.31.08-.63.15-1,.2a2.27,2.27,0,0,1-2.58-1.7A2.42,2.42,0,0,1,2.63,10,20.55,20.55,0,0,1,4.52,9,4,4,0,0,0,5.7,8.26c.35-.33.7-.65,1.07-1a2.16,2.16,0,0,1,3.28.44,4.88,4.88,0,0,1,.74,1.41,10,10,0,0,0,1.53,2.9A2.74,2.74,0,0,1,12.92,13.83Z"/><path class="cls-1" d="M8.29,2.47A2,2,0,0,1,7.22,4.35a1.91,1.91,0,0,1-2.66-.89,2.41,2.41,0,0,1,.25-2.25A3,3,0,0,1,5.59.3,1.46,1.46,0,0,1,7.64.58,3,3,0,0,1,8.29,2.47Z"/><path class="cls-1" d="M14.44,3A2.87,2.87,0,0,1,13.3,5.4,1.76,1.76,0,0,1,11,5.24,1.76,1.76,0,0,1,10.56,3,3.6,3.6,0,0,1,12.4,1.45a1.33,1.33,0,0,1,1.9.82A5.21,5.21,0,0,1,14.44,3Z"/><path class="cls-1" d="M0,5.91A7.4,7.4,0,0,1,.27,4.67a2.51,2.51,0,0,1,.6-.83,1,1,0,0,1,1-.18A3.17,3.17,0,0,1,4,6.36,1.88,1.88,0,0,1,1.49,8,2.15,2.15,0,0,1,.05,6.17a2.08,2.08,0,0,1,0-.25Z"/><path class="cls-1" d="M16.17,6.89A1.19,1.19,0,0,1,17.51,8.4a3.22,3.22,0,0,1-1.1,2,2.18,2.18,0,0,1-2.88,0,1.53,1.53,0,0,1-.21-2A3.34,3.34,0,0,1,16.17,6.89Z"/></g></g></svg>