<svg xmlns="http://www.w3.org/2000/svg" viewBox="0 0 76.85 116.43"><defs><style>.cls-1{fill:#303;}.cls-2{fill:#1dc0d6;}.cls-3{fill:#fdfdfd;}.cls-4{fill:#241f58;}</style></defs><title>icono-jeringa</title><g id="Capa_2" data-name="Capa 2"><g id="Home"><path class="cls-1" d="M51.87,54.27a2.51,2.51,0,0,0-.52-1.12c-3.4-5.9-6.78-11.8-10.22-17.66-.53-.9-.51-1.29.45-1.78,1.8-.93,1.77-1,2.79.78Q57.71,57.55,71.05,80.61c.45.76.52,1.14-.38,1.61s-2.5.85-2.85,1.88.24,2.2.43,3.31c.26,1.45.48,2.91.8,4.34A.94.94,0,0,1,68.43,93a11.85,11.85,0,0,0-1.19.69c-1.9,1.09-1.89,1.09-.77,3,3.34,5.78,6.67,11.57,10,17.33.45.78.57,1.19-.39,1.68-1.9,1-1.86,1-2.94-.81-3.38-5.86-6.79-11.7-10.13-17.57-.45-.79-.76-.87-1.5-.4-1.16.74-2.49,2-3.58,1.86s-2.18-1.68-3.26-2.61L54.43,96c-1-.86-1.85-2.19-3-2.43s-2.2,1-3.26,1.66c-.8.5-1,0-1.25-.54Q34.41,72.94,21.86,51.25c-2.1-3.63-4.23-7.26-6.29-10.91-.42-.74-.7-1-1.48-.44-1.34.87-2.77,1.59-4.12,2.43-.62.39-.89.27-1.25-.34-1.21-2.06-1.23-2.05.81-3.23,3.19-1.85,6.38-3.71,9.6-5.53.68-.38.86-.66.42-1.4q-3.71-6.3-7.31-12.65c-.34-.59-.6-.61-1.13-.29C9.23,20,7.32,21.07,5.45,22.19c-.6.36-.94.47-1.35-.29C2.85,19.62,1.53,17.37.2,15.14-.15,14.56,0,14.32.52,14Q12.48,7.12,24.4.2c.57-.33.82-.27,1.14.31C26.81,2.78,28.1,5,29.44,7.28c.36.6.33.87-.31,1.22-1.92,1.05-3.78,2.19-5.69,3.25-.68.37-.74.68-.34,1.34,2.44,4.16,4.87,8.34,7.24,12.54.4.7.68.75,1.34.36,3.58-2.11,7.2-4.15,10.77-6.27.72-.43,1-.31,1.4.39,1.11,2,1.14,2-.76,3.06-1.09.64-2.17,1.29-3.28,1.88-.53.28-.64.52-.3,1.05.52.8.93,1.69,1.47,2.49.41.59.19.83-.33,1.15-2.07,1.29-2.06,1.3-3.29-.82-1.06-1.84-1.06-1.84-2.93-.75s-1.94,1.13-.78,3.14L47.35,55.1a8.88,8.88,0,0,1-4.12-.52c0-.14-.06-.25-.23-.24h0a.66.66,0,0,0,0-.25Q36.51,42.84,30,31.56c-.33-.57-.61-.5-1.08-.21-1.18.72-2.37,1.43-3.6,2.06-.69.36-.74.65-.34,1.32q3.23,5.46,6.36,11a22.42,22.42,0,0,1,2.08,3.86l-4.3-1c-1.91-3.34-3.81-6.68-5.74-10-.56-1-.92-2.6-1.77-2.72s-2,1-3.05,1.5c-.6.3-.64.58-.3,1.15,2,3.35,3.92,6.72,5.87,10.09q9.22,16,18.44,32c.34.59.57.71,1.22.34Q52.23,76,60.72,71.14c.76-.44.62-.75.27-1.34-1.75-3-3.41-6-5.18-8.95C54.5,58.66,53.39,56.34,51.87,54.27ZM63.1,73.56l-.76.42c-5.6,3.23-11.19,6.48-16.8,9.68-.75.42-.72.72-.37,1.42.49,1,.95,1.24,1.84.51A8.3,8.3,0,0,1,48.09,85c2.26-1.31,2.25-1.3,3.45,1,.24.48.2.7-.27,1-1,.51-1.86,1.18-2.86,1.6s-.64,1-.3,1.61.68.92,1.49.44Q57.85,85.73,66.17,81c.73-.41.91-.7.46-1.5s-1-1.1-1.79-.42a6.28,6.28,0,0,1-1,.57c-2.24,1.29-2.22,1.28-3.41-1.05-.26-.5-.17-.71.29-1,1-.54,2-1.11,2.95-1.69.26-.16.7-.26.43-.73S63.44,74.11,63.1,73.56ZM19.64,14l-.22.11c-1.46.84-2.9,1.7-4.36,2.52-.49.28-.2.55,0,.82,2.49,4.32,5,8.64,7.49,13,.24.43.43.63.95.3,1.29-.79,2.61-1.53,3.93-2.25.49-.27.53-.5.25-1-2.52-4.31-5-8.64-7.51-13C20,14.3,19.93,14.05,19.64,14Zm5.5-7.37a8,8,0,0,1-.49-.9c-.44-1.13-1-1.29-2.09-.58-2.4,1.53-4.92,2.87-7.39,4.3-3.27,1.88-6.52,3.8-9.82,5.64-.85.47-.93.9-.35,1.59a3,3,0,0,1,.38.65c.25.62.58.67,1.15.34,6-3.5,12-7,18.07-10.46C24.82,7.07,25.19,7,25.14,6.62Zm29.5,85c1.15,1,2.22,2,3.26,3a.71.71,0,0,0,1,.1c2-1.17,4-2.33,6-3.48a.83.83,0,0,0,.49-1c-.25-1.19-.49-2.38-.68-3.57-.08-.51-.19-.68-.7-.39C60.91,88,57.83,89.76,54.64,91.61Z"/><path class="cls-2" d="M29.13,48.56l4.3,1,0,0c0,.18.1.21.21.25a31.63,31.63,0,0,1,4.6,2.26c1.53.9,3,2,4.81,2.3h0l.23.24a8.88,8.88,0,0,0,4.12.52c1.6.24,3-.46,4.52-.82,1.52,2.06,2.63,4.38,3.94,6.57,1.77,3,3.43,6,5.18,8.95.35.59.49.9-.27,1.34Q52.23,76,43.8,80.91c-.65.37-.88.25-1.22-.34q-9.19-16-18.44-32ZM50.21,65.8a11.86,11.86,0,0,0-1.52-2.39A7.38,7.38,0,0,0,46.26,65a10.3,10.3,0,0,0,1.48,2.41A9,9,0,0,0,50.21,65.8Zm-1.69,8.06A8.6,8.6,0,0,0,47,71.5,8,8,0,0,0,44.56,73a7.39,7.39,0,0,0,1.6,2.44A9.28,9.28,0,0,0,48.52,73.86ZM40.3,64.52a8,8,0,0,0-1.55-2.34,7.23,7.23,0,0,0-2.35,1.55A5.66,5.66,0,0,0,38,66.11,7,7,0,0,0,40.3,64.52Z"/><path class="cls-2" d="M25.14,6.62c.05.4-.32.45-.54.58-6,3.49-12,7-18.07,10.46-.57.33-.9.28-1.15-.34A3,3,0,0,0,5,16.67c-.58-.69-.5-1.12.35-1.59,3.3-1.84,6.55-3.76,9.82-5.64,2.47-1.43,5-2.77,7.39-4.3,1.11-.71,1.65-.55,2.09.58A8,8,0,0,0,25.14,6.62Z"/><path class="cls-2" d="M54.64,91.61C57.83,89.76,60.91,88,64,86.2c.51-.29.62-.12.7.39.19,1.19.43,2.38.68,3.57a.83.83,0,0,1-.49,1c-2,1.15-4,2.31-6,3.48a.71.71,0,0,1-1-.1C56.86,93.58,55.79,92.65,54.64,91.61Z"/><path class="cls-3" d="M43.23,54.58,43,54.34C43.17,54.33,43.21,54.44,43.23,54.58Z"/><path class="cls-4" d="M50.21,65.8a9,9,0,0,1-2.47,1.59A10.3,10.3,0,0,1,46.26,65a7.38,7.38,0,0,1,2.43-1.57A11.86,11.86,0,0,1,50.21,65.8Z"/><path class="cls-4" d="M48.52,73.86a9.28,9.28,0,0,1-2.36,1.55A7.39,7.39,0,0,1,44.56,73,8,8,0,0,1,47,71.5,8.6,8.6,0,0,1,48.52,73.86Z"/><path class="cls-4" d="M40.3,64.52A7,7,0,0,1,38,66.11a5.66,5.66,0,0,1-1.6-2.38,7.23,7.23,0,0,1,2.35-1.55A8,8,0,0,1,40.3,64.52Z"/><path class="cls-4" d="M33.41,49.54l.21.25C33.51,49.75,33.37,49.72,33.41,49.54Z"/></g></g></svg>