<svg xmlns="http://www.w3.org/2000/svg" viewBox="0 0 784.7 328.1"><defs><style>.cls-1{fill:#1dc0d6;}.cls-2{fill:#440449;}.cls-3{fill:none;}.cls-4{fill:#d1d0d4;}.cls-5{fill:#f2f1f2;}.cls-6{fill:#330643;}</style></defs><title>logo-petit</title><g id="Capa_2" data-name="Capa 2"><g id="Capa_8" data-name="Capa 8"><path class="cls-1" d="M703.86,205.49l13.2-84.74c-7-.5-14.89-.67-23.37-.5l-3.43.07-.12-3.43c-.26-7.13.92-17.92,3.59-33l.58-3.26,3.29.41c27.47,3.46,55.57,6.13,83.52,8l3.58.23-.34,3.58a137.73,137.73,0,0,1-6.23,30.28l-.9,2.71-2.84-.35c-8.14-1-15.8-1.62-22.84-1.8-3.33,18.93-7.15,46-11.36,80.5l-.37,3-3.05,0a251.88,251.88,0,0,1-29.27-1.33Zm21.24-91L711.88,199.3c7.12.64,14.41,1,21.76,1,4.3-35,8.19-62.15,11.57-80.77l.53-2.89,2.93,0a226.41,226.41,0,0,1,23.7,1.55A130.11,130.11,0,0,0,777,95.71c-25.77-1.74-51.64-4.2-77-7.33a188.75,188.75,0,0,0-2.93,24.85c8.87-.08,17,.21,24.3.88Z"/><path class="cls-2" d="M779.67,92.32a133.64,133.64,0,0,1-6.08,29.51A228.64,228.64,0,0,0,747.42,120q-5.24,28.8-11.92,83.62a247.23,247.23,0,0,1-28.86-1.32l13.22-84.83a248.85,248.85,0,0,0-27.47-.81q-.36-10.23,3.55-32.26Q737.45,89.57,779.67,92.32Z"/><path class="cls-1" d="M541.78,204.2l2.12-85.74c-7,.42-14.85,1.27-23.24,2.54l-3.39.51-.57-3.39c-1.18-7-1.41-17.89-.71-33.18l.15-3.31h3.32c27.68-.13,55.89-1.12,83.84-2.94l3.59-.23L607,82a137,137,0,0,1-2.26,30.83l-.54,2.81h-2.86c-8.2,0-15.88.44-22.88,1.18-.85,19.2-1.13,46.53-.84,81.29l0,3.05-3,.43a252.25,252.25,0,0,1-29.2,2.47Zm9.27-93L548.93,197c7.15-.29,14.42-.92,21.71-1.87-.27-35.24.07-62.68,1-81.58l.15-2.94,2.91-.35a228.46,228.46,0,0,1,23.7-1.53,129.72,129.72,0,0,0,1.72-22.88c-25.78,1.61-51.76,2.52-77.32,2.7a189.48,189.48,0,0,0,.32,25c8.79-1.23,16.92-2,24.21-2.27Z"/><path class="cls-2" d="M602.3,82.16a134.12,134.12,0,0,1-2.2,30.05,226.55,226.55,0,0,0-26.2,1.53q-1.46,29.22-1,84.45a247.22,247.22,0,0,1-28.79,2.44l2.12-85.83a247.47,247.47,0,0,0-27.34,2.75q-1.68-10.1-.66-32.45Q560.08,84.91,602.3,82.16Z"/><path class="cls-1" d="M446,206.75l.18-4.08c.11-2.27.16-9.08.16-20.23s-.63-29.68-1.88-55c-.08-1.81-.19-6.13-.32-13.21-1.49-20.1-1.4-24.79-1.2-26.56l.34-3,3-.12c27.7-1.06,53.07-2.4,75.39-4l3.3-.23.4,3.29c.95,7.79.4,18.39-1.62,31.51l-.45,2.89-2.92.06a335.14,335.14,0,0,0-41,3.19c-.07,1.13-.12,2.18-.15,3.16,19.32-1.4,20.81-1,21.81-.69l2.58.73-.44,29.06-22.28,2.33c.07,2.17.14,4,.19,5.46,3-.24,6.61-.71,10.67-1.41,5.58-1,14.68-1.91,27.8-2.71l3-.19.61,3c2,9.7,2.78,21.55,2.38,35.24l-.09,3.18-3.17.2c-7.81.49-32.12,3-72.26,7.61Zm3.81-115.31c.05,3.3.35,9.76,1.29,22.39V114c.13,7,.23,11.4.31,13.11,1.25,25.4,1.89,44,1.89,55.31,0,7.37,0,12.88-.07,16.47,34.07-3.85,55.6-6.14,65.44-6.95a151,151,0,0,0-1.76-27.53A236.37,236.37,0,0,0,493,166.85a106,106,0,0,1-14.55,1.67h-.62l-3.45-1.14-.1-2.4q-.12-2.84-.43-11.73l0-1.4,2.13-2.41,20.39-2.13.26-16.81c-2.94.06-8.82.34-20.56,1.23l-3.63.28-.12-3.64a98.46,98.46,0,0,1,.37-10.32l.21-2.74,2.71-.43a325.43,325.43,0,0,1,41.72-3.62,121.68,121.68,0,0,0,1.46-23.44C498.07,89.24,474.92,90.45,449.81,91.44Z"/><path class="cls-1" d="M665.42,208.92c-6.54,0-6.83-.08-7.37-.22l-2.28-.62-.26-2.36c-1.87-16.93-3-43.08-3.36-77.73l0-2.61,2.49-.76a56,56,0,0,1,11.84-2c-4.48-1-8.7-3.79-12.54-8.37l-.09-.11c-2.4-3.11-3.4-7.37-3-12.67v-.13c1.2-10,6.81-16.44,16.25-18.69a54.35,54.35,0,0,1,16.88-1l.72.06.63.34c8.79,4.66,13.8,10.22,14.86,16.52,1,6.09-1.62,12.6-7.89,19.37l-.47.51-.63.29a48.57,48.57,0,0,1-11,3.58q6.66.16,14.69.77l3.53.27-.32,3.52c-2.49,27.27-5,52.91-7.39,76.21l-.26,2.46-2.4.57a89.19,89.19,0,0,1-20.18,2.71Zm-3.3-7c1.26,0,3.09,0,5.74,0A78.61,78.61,0,0,0,684,200c2.23-21.6,4.52-45.14,6.8-70.1-14.26-.94-24.89-.68-31.69.77C659.52,161.74,660.52,185.68,662.12,201.94Zm6.27-86a36.21,36.21,0,0,0,19.29-3.16c4.39-4.89,6.29-9.24,5.66-13-.66-3.93-4.24-7.7-10.63-11.19a46.22,46.22,0,0,0-14,.83c-6.6,1.57-10.08,5.6-10.94,12.67-.27,3.45.23,6,1.49,7.73C662.25,113.37,665.32,115.42,668.39,115.94Z"/><path class="cls-2" d="M520.67,84.12q1.37,11.26-1.61,30.56a326.29,326.29,0,0,0-44.19,3.65,94.2,94.2,0,0,0-.36,9.94q22.28-1.7,24.36-1.1l-.36,23.29-22.11,2.32-.32.35q.32,8.88.44,11.71l.59.19a101,101,0,0,0,14-1.61q8.13-1.48,27.42-2.67,2.9,14.22,2.31,34.45-11.86.75-72.43,7.62.17-3.45.16-20.38t-1.89-55.15q-.12-2.64-.31-13.2-1.65-22.2-1.22-26Q487,86.47,520.67,84.12Z"/><path class="cls-2" d="M682.48,85.22q23,12.18,6,30.44a39.75,39.75,0,0,1-21.88,3.73q-6-1-11.31-7.34-2.79-3.61-2.24-10.26Q654.63,89,666.69,86.08A50.49,50.49,0,0,1,682.48,85.22Zm10.92,41.44q-3.74,40.93-7.38,76.16a86.36,86.36,0,0,1-19.39,2.62c-5.64,0-8.61,0-8.89-.1Q655,180,654.4,128,665.59,124.55,693.4,126.66Z"/><path class="cls-1" d="M367.68,213.91l.05-3.91c.52-37.77,1.19-69.12,2-93.15.11-18.32.36-22.27.54-23.64l.24-1.83,1.65-.83c11.82-5.93,29-8.33,51.17-7.12l.54.07c17.14,3.66,26.91,15.19,29.05,34.29l0,.37c.11,24.65-11.33,40-34,45.58l-.12,0c-5.41,1.14-9.52,2-12.41,2.49-.16,10.24.21,22.44,1.11,36.34l.17,2.67-2.54.86a155.41,155.41,0,0,1-33.59,7.39Zm9.37-118c-.14,2.73-.28,8.65-.35,21V117c-.78,23.15-1.43,53.11-1.94,89.1a149.6,149.6,0,0,0,25.65-5.78c-.87-14.29-1.17-26.78-.9-37.14l.08-2.92,2.89-.43c2.54-.38,7.54-1.36,14.86-2.9,19.31-4.79,28.68-17.41,28.64-38.58-1.82-15.79-9.45-25-23.3-28C403,89.33,387.68,91.2,377.05,96Zm22.22,48.14-.15-3.94c-.35-8.6-.28-17.41.2-26.17l.11-2.11,1.92-.87c6.66-3,13.57-2.81,20.53.68l.31.18c4.32,2.75,6.46,7.42,6.36,13.87l0,.41c-1.19,8.94-9.72,14.77-25.36,17.31Zm6.89-27.5c-.29,6.44-.36,12.89-.21,19.24,9.62-2.1,14.87-5.6,15.64-10.42,0-5.34-2.1-7-3-7.58A16.06,16.06,0,0,0,406.16,116.59Z"/><path class="cls-2" d="M448.23,118.17q.15,34.41-31.35,42.19-11.19,2.35-15.12,2.95-.43,16.41,1.06,39.51A151.14,151.14,0,0,1,370,210.05q.78-57,2-93.13.12-20.28.51-23.26,17-8.52,49.42-6.75Q445.28,91.89,448.23,118.17ZM401.37,140q21-3.4,22.46-14.33.12-7.79-4.75-10.88-9-4.53-17.52-.63Q400.85,127.21,401.37,140Z"/><path class="cls-3" d="M325.78,116.63l.87-4.26A10.77,10.77,0,0,0,325.78,116.63Z"/><path class="cls-4" d="M20.1,111.34c1.63,8.38-2,16.43-.63,25.14,3.4,22.18,15.33,37.74,34,48.85C73,197,94.08,204.46,116.83,205.56c21.55,1,39.91-8.47,57-20.53,2.42-1.71,4.4-3.89,7.72-2.86-18.58,27.39-55.12,40-89.51,30.69a147.31,147.31,0,0,1-55.83-29.19c-20.07-16.57-26.1-38.37-21-63.57C16,116.65,17.12,113.5,20.1,111.34Z"/><path class="cls-5" d="M198.59,250.79c-9.39,2.5-16.88,7.27-20.32,16.93-4.73,13.25-6.34,26.64-1.44,40.18a15.89,15.89,0,0,0,5.84,7.37C170.44,316,163,311.27,159,300c-4.71-13.24-4-26.56.56-39.62,3-8.57,11.69-12.93,23.51-12.34C188.33,248.27,193.6,248.83,198.59,250.79Z"/><path class="cls-1" d="M272.39,103.66c-4-8.93-7.68-18.76-19.77-22,3.48,17.26,2.94,34.49,5,51.5q0,12.75-.05,25.5c-1.85,18.69-1.85,37.53-4.63,56.15-1.11,7.41-2.06,14.85-3.08,22.28,3.25.5,4-1.73,5-3C285.91,194,293.47,150.68,272.39,103.66Z"/><path class="cls-1" d="M101.89,60.28C84.44,57.9,76.42,69.69,67.75,80.85c-3.86,5-7.17,10.38-11,16,13.09,5.49,25.88,9.91,39.78,10.1,3.88.06,7.57-.62,9.65-4.22,8.31-14.33,10.64-30.2,12.64-48.19C112.82,59.24,106.75,61,101.89,60.28Z"/><path class="cls-1" d="M196.92,38.25c-6.33-2.89-13.75.76-20.09-3.71,1.72,9,5.49,17,7.09,25.76.9,5,6.27,3.54,10.08,3.62,4.55.1,2.66-3.46,3.2-5.67,1-4.3,1.64-8.8,3.37-12.81C202.5,41,200.69,40,196.92,38.25Z"/><path class="cls-1" d="M66,223.85c2.6,4.52,5.91,7.27,11.45,5.83,5.77-1.5,11.45-.79,17.08.69,2.76.73,4.85-.18,8.41-2.9-15.32-2.75-28.61-7-42.27-11.42C62.41,218.64,64.39,221.13,66,223.85Z"/><path class="cls-4" d="M181.58,182.17c-.54-3.35,1.28-4.75,4.28-5.17A9.94,9.94,0,0,1,181.58,182.17Z"/><path class="cls-4" d="M145.23,266.23c-1.31-7.6.78-14.86,3-21.84,3.36-10.49,11.86-14.32,22.23-14.48,9.28-.14,18.6.53,27.84,0,18.16-1.09,22.33-3.41,28.56-22.81,5.11-15.9,6.45-32.68,6.91-49.42.09-3.3-.35-5.35-4-7.34-15-8.18-15.5-33.77-.72-42,4.73-2.64,4.56-5.41,4.24-9.35-.94-11.6-3.24-23.11-2.31-34.82,10.49,8.31,9.16,20.81,10.51,31.92,5.84,48.14,3.45,96.12-4.47,143.89-.56,3.34-2.23,6.44-1.72,10,.58,4.15-2.93,5.31-5.73,6.53s-4.48-.64-6.34-2.93c-12.5-15.34-39.46-21.85-57.87-14.62C152.81,243.9,148.12,254.31,145.23,266.23Z"/><path class="cls-4" d="M87.32,240.76c11.13.61,22.81,8.26,33,18.8,1.39,1.45,2.48,3.36,1.48,5-1.77,2.92-3.75,0-5.33-.62-19.52-7.56-26.24-4.77-34.28,14.6-.7,1.69-1,3.52-1.68,5.25-1.44,4-2.68,8-4.5,11.81-3.29,6.84-10.39,9-17.14,5.68-14.19-7.08-18.48-17.63-13.35-32.81C51.13,252,66.42,240.7,87.32,240.76Z"/><path class="cls-4" d="M198.59,250.79c5.3,1.78,10.39,3.93,14.18,8.26,2.61,3,2.84,5.67-1.32,7.45-9.69,4.16-12.17,12.45-12.8,21.93-.28,4.23-.87,8.44-1.38,12.65-1.18,9.88-4.31,12.9-14.6,14.19a15.89,15.89,0,0,1-5.84-7.37c-4.9-13.54-3.29-26.93,1.44-40.18C181.71,258.06,189.2,253.29,198.59,250.79Z"/><path class="cls-4" d="M152.28,20.39a13,13,0,0,1-8,8.12c-8.19-1.26-14.53,3.53-21.16,6.85-10.32,5.16-20.66,9.56-32.57,7.89-4.49-.62-10.45-1.17-11.74-5s4.06-6.83,7.45-9.11c17.29-11.62,35.67-19.34,57.16-14.62C147.07,15.28,150.41,16.79,152.28,20.39Z"/><path class="cls-4" d="M211.15,98.81c-.42-5.51,2.23-9,7.53-9,5.11,0,8.45,3.51,8.36,8.6-.09,4.92-3,8.58-8.36,8.57C213.56,106.94,211.35,103.61,211.15,98.81Z"/><path class="cls-5" d="M20.1,111.34c7.47-7.77,13.62-9.26,23.44-5.17C56,111.35,68.4,116.61,81.75,118.79c12,2,24.39,4,34-6.78.35-.39.67-.8,1-1.21,4.69,10,8-1.16,12.16-1a13.36,13.36,0,0,1,10.33,4.84c2.47,2.86,5.4,4,8.08,1.08,3.15-3.45.69-6.26-2.21-8.6-8.57-6.91-15.85-6.62-27,2.16,6-13.06,11.11-25.34,10.83-38-.37-16.67,7.71-29.39,15.25-42.74a13,13,0,0,0,8-8.12c9.15,11.21,14.62,24.29,19,37.87,1.24,3.81.33,5.87-4.37,5.73-5.84-.17-11.48,1.59-17.16,2.89-3.13.73-6,1.59-5.05,5.48.86,3.43,4,3,6.61,2.53a108.83,108.83,0,0,1,37.2.09c4.06.74,7.88,1,7.34,6.85a3.92,3.92,0,0,0,4.39,4.49c3.21-.11,3.88-2.46,4-4.92.75-11.12,2.21-22.09,5.67-32.75,8.44-26,28.33-31,48.28-12.11,7.3,6.91,12.5,15,14.92,24.79,1.17,4.7-.05,7-5.55,6.17-6.77-1-12.46-4.24-18.15-7.56-5-2.94-9.92-6-15.62-7.57-2-.55-4.35-2.29-5.9-.65-1.77,1.89-.19,4.39.76,6.55.85,1.92,1.54,3.91,2.3,5.87-.93,11.71,1.37,23.22,2.31,34.82.32,3.94.49,6.71-4.24,9.35-14.78,8.24-14.24,33.83.72,42,3.65,2,4.09,4,4,7.34-.46,16.74-1.8,33.52-6.91,49.42-6.23,19.4-10.4,21.72-28.56,22.81-9.24.55-18.56-.12-27.84,0-10.37.16-18.87,4-22.23,14.48-2.25,7-4.34,14.24-3,21.84-.71,1.88.48,5.06-1.71,5.59-3.12.75-3.13-2.61-4.14-4.68a67.33,67.33,0,0,0-25-28c-2.33-1.46-4.63-2.51-3.1-6,1.27-2.91,1.93-5.14,6.27-5.4,37.32-2.23,63.4-22.29,82-53.32,2.74-4.58,3.85-3.77,6.18-.53.92,1.27,1.66,2.68,2.47,4,1,1.74,2.43,2.95,4.54,2.13s2.27-2.53,2.18-4.59c-.55-12.35-20.82-23.69-31.77-17.8-3.09,1.65-3.94,4.14-3.44,7.26s2.63,4.56,5.49,4.83c1.77.16,3.58-.27,6.82-.56L185.86,177c-3,.42-4.82,1.82-4.28,5.17-3.32-1-5.3,1.15-7.72,2.86-17.12,12.06-35.48,21.57-57,20.53C94.08,204.46,73,197,53.42,185.33c-18.62-11.11-30.55-26.67-33.95-48.85C18.14,127.77,21.73,119.72,20.1,111.34Zm16,6.47c-6.21-.31-9.7,2.46-11.45,8A26.25,26.25,0,0,0,24.19,140c5,21.39,36.23,43.77,58,41.6,9.25-.93,17.39-6.37,19-13.26,2-8.43-2.51-13.95-8.72-18.86-13.1-10.36-27.29-19-41.73-27.27C46.21,119.54,41.25,117.56,36.12,117.81Zm174.39,7.63c-.29-1.25-.42-2-.66-2.79-3.46-10.92-22.86-17.63-32.14-11.1-2.07,1.46-3.62,3.37-2.42,6,1.32,2.9,3.75,4.93,7,3.41,9.13-4.3,16.81-3.57,22.6,5.48a2.94,2.94,0,0,0,4.13,1C209.76,127.11,210.14,126,210.51,125.44Zm.64-26.63c.2,4.8,2.41,8.13,7.53,8.14,5.4,0,8.27-3.65,8.36-8.57.09-5.09-3.25-8.64-8.36-8.6C213.38,89.81,210.73,93.3,211.15,98.81Z"/><path class="cls-5" d="M36.54,124.13c6.88.66,12.12,2.86,16.26,7.25,1.2,1.27,2.66,2.93,1.52,4.88s-3.36,1.39-5,.69c-4.79-2.1-9.53-4.35-14.15-6.8-1.46-.78-3.58-2-2.6-4.21C33.47,124,35.64,124.22,36.54,124.13Z"/><path class="cls-6" d="M210.51,125.44c-.37.54-.75,1.67-1.52,2.06a2.94,2.94,0,0,1-4.13-1c-5.79-9-13.47-9.78-22.6-5.48-3.22,1.52-5.65-.51-7-3.41-1.2-2.64.35-4.55,2.42-6,9.28-6.53,28.68.18,32.14,11.1C210.09,123.41,210.22,124.19,210.51,125.44Z"/><path class="cls-2" d="M130.21.1C144.6-.43,156.7,2.91,164.74,15c1.66,2.5,3.6,2.67,6,2.71,11.73.22,23,2.76,34.17,6.22,2.19.68,4.2,2.42,6.92-.54,11-11.93,24.77-12.67,38.64-6.81,20.2,8.54,33.2,23.89,38.24,45.47,1.69,7.23-.07,13.93-5.87,18.64-3.05,2.48-2.81,4-1.2,7,37.61,71.36,6.46,156.6-63.84,189.1-6.13,2.83-6.84,7.47-7.6,12.62-.66,4.44-.36,9-1.19,13.43-4.59,24.06-30.74,33.09-50,17.42-8.53-6.94-12.27-16.45-13.9-26.79-.72-4.58-2.47-5.95-6.85-6.59-12.3-1.79-24.35-4.89-35.36-10.86-4.17-2.26-6.15-1.26-7.61,2.75-2.61,7.17-4.87,14.5-8,21.43C81,314.18,71.28,318.05,57,312.89c-22.11-8-30.8-27.29-22.2-49.81,3.46-9,8.89-16.93,16.76-22.65,3.84-2.8,3.37-4.73.87-8a109.34,109.34,0,0,1-15.31-27.57,22.17,22.17,0,0,0-7.36-9.81C4.89,175.48-3.72,149.67,1.43,118.94c2.85-17,16.88-28.63,34.08-28,5,.18,7.48-1.18,9.72-5.5C50.62,75,58.06,66,66.25,57.68c2.63-2.67,3.6-3.79.15-7-6.73-6.31-7-15.06-1.37-22.93,8.75-12.3,22.12-17.68,35.57-22.46C110.31,1.84,120.41-.51,130.21.1Zm52.46,315.17C193,314,196.09,311,197.27,301.08c.51-4.21,1.1-8.42,1.38-12.65.63-9.48,3.11-17.77,12.8-21.93,4.16-1.78,3.93-4.46,1.32-7.45-3.79-4.33-8.88-6.48-14.18-8.26-5-2-10.26-2.52-15.54-2.79-11.82-.59-20.52,3.77-23.51,12.34C155,273.4,154.27,286.72,159,300,163,311.27,170.44,316,182.67,315.27Zm-1.09-133.1a9.94,9.94,0,0,0,4.28-5.17l6.15-7.87c-3.24.29-5,.72-6.82.56-2.86-.27-5-1.82-5.49-4.83s.35-5.61,3.44-7.26c11-5.89,31.22,5.45,31.77,17.8.09,2.06-.16,3.8-2.18,4.59s-3.51-.39-4.54-2.13c-.81-1.36-1.55-2.77-2.47-4-2.33-3.24-3.44-4-6.18.53-18.57,31-44.65,51.09-82,53.32-4.34.26-5,2.49-6.27,5.4-1.53,3.51.77,4.56,3.1,6a67.33,67.33,0,0,1,25,28c1,2.07,1,5.43,4.14,4.68,2.19-.53,1-3.71,1.71-5.59,2.89-11.92,7.58-22.33,20.16-27.27,18.41-7.23,45.37-.72,57.87,14.62,1.86,2.29,3.43,4.2,6.34,2.93s6.31-2.38,5.73-6.53c-.51-3.59,1.16-6.69,1.72-10,7.92-47.77,10.31-95.75,4.47-143.89-1.35-11.11,0-23.61-10.5-31.92-.77-2-1.46-4-2.31-5.87-1-2.16-2.53-4.66-.76-6.55,1.55-1.64,3.9.1,5.9.65,5.7,1.55,10.6,4.63,15.62,7.57,5.69,3.32,11.38,6.58,18.15,7.56,5.5.8,6.72-1.47,5.55-6.17-2.42-9.78-7.62-17.88-14.92-24.79C238.3,17.68,218.41,22.65,210,48.65c-3.46,10.66-4.92,21.63-5.67,32.75-.16,2.46-.83,4.81-4,4.92a3.92,3.92,0,0,1-4.39-4.49c.54-5.84-3.28-6.11-7.34-6.85a108.83,108.83,0,0,0-37.2-.09c-2.62.42-5.75.9-6.61-2.53-1-3.89,1.92-4.75,5.05-5.48,5.68-1.3,11.32-3.06,17.16-2.89,4.7.14,5.61-1.92,4.37-5.73-4.4-13.58-9.87-26.66-19-37.87-1.87-3.6-5.21-5.11-8.89-5.92-21.49-4.72-39.87,3-57.16,14.62-3.39,2.28-8.71,5.32-7.45,9.11s7.25,4.43,11.74,5c11.91,1.67,22.25-2.73,32.57-7.89,6.63-3.32,13-8.11,21.16-6.85C136.71,41.86,128.63,54.58,129,71.25c.28,12.71-4.78,25-10.83,38.05,11.13-8.78,18.41-9.07,27-2.16,2.9,2.34,5.36,5.15,2.21,8.6-2.68,2.94-5.61,1.78-8.08-1.08A13.36,13.36,0,0,0,129,109.82c-4.18-.18-7.47,10.93-12.16,1-.34.41-.66.82-1,1.21-9.64,10.74-22,8.74-34,6.78C68.4,116.61,56,111.35,43.54,106.17c-9.82-4.09-16-2.6-23.44,5.17-3,2.16-4.12,5.31-4.82,8.76-5.14,25.2.89,47,21,63.57a147.31,147.31,0,0,0,55.83,29.19C126.46,222.12,163,209.56,181.58,182.17Zm76-49q0,12.75-.05,25.49c-1.85,18.7-1.85,37.54-4.63,56.16-1.11,7.41-2.06,14.85-3.08,22.28,3.25.5,4-1.73,5-3,31.11-40.06,38.67-83.42,17.59-130.44-4-8.93-7.68-18.76-19.77-22C256.1,98.93,255.56,116.16,257.61,133.17ZM87.32,240.76c-20.9-.06-36.19,11.19-41.77,27.7-5.13,15.18-.84,25.73,13.35,32.81,6.75,3.36,13.85,1.16,17.14-5.68,1.82-3.78,3.06-7.85,4.5-11.81.63-1.73,1-3.56,1.68-5.25,8-19.37,14.76-22.16,34.28-14.6,1.58.61,3.56,3.54,5.33.62,1-1.63-.09-3.54-1.48-5C110.13,249,98.45,241.37,87.32,240.76ZM56.74,96.86c13.09,5.49,25.88,9.91,39.78,10.1,3.88.06,7.57-.62,9.65-4.22,8.31-14.33,10.64-30.2,12.64-48.19-6,4.69-12.06,6.4-16.92,5.73C84.44,57.9,76.42,69.69,67.75,80.85,63.89,85.83,60.58,91.23,56.74,96.86ZM176.83,34.54c1.72,9,5.49,17,7.09,25.76.9,5,6.27,3.54,10.08,3.62,4.55.1,2.66-3.46,3.2-5.67,1-4.3,1.64-8.8,3.37-12.81,1.93-4.49.12-5.47-3.65-7.19C190.59,35.36,183.17,39,176.83,34.54ZM60.62,216.05c1.79,2.59,3.77,5.08,5.33,7.8,2.59,4.52,5.91,7.27,11.45,5.83,5.77-1.5,11.45-.79,17.08.69,2.76.73,4.85-.18,8.41-2.9C87.57,224.72,74.28,220.5,60.62,216.05Z"/><path class="cls-2" d="M36.12,117.81c5.13-.25,10.09,1.73,14.67,4.35,14.44,8.25,28.63,16.91,41.73,27.27,6.21,4.91,10.73,10.43,8.72,18.86-1.65,6.89-9.79,12.33-19,13.26-21.78,2.17-53-20.21-58-41.6a26.25,26.25,0,0,1,.48-14.11C26.42,120.27,29.91,117.5,36.12,117.81Zm.42,6.32c-.9.09-3.07-.11-3.93,1.81-1,2.22,1.14,3.43,2.6,4.21,4.62,2.45,9.36,4.7,14.15,6.8,1.6.7,3.75,1.37,5-.69s-.32-3.61-1.52-4.88C48.66,127,43.42,124.79,36.54,124.13Z"/></g></g></svg>