<svg xmlns="http://www.w3.org/2000/svg" viewBox="0 0 53.09 80.43"><defs><style>.cls-1{fill:#303;}.cls-2{fill:#fcbe10;}.cls-3{fill:#fdfdfd;}.cls-4{fill:#241f58;}</style></defs><title>Recurso 1</title><g id="Capa_2" data-name="Capa 2"><g id="Panel_-_Calendario" data-name="Panel - Calendario"><path class="cls-1" d="M35.83,37.49a1.69,1.69,0,0,0-.36-.78c-2.34-4.07-4.68-8.14-7.06-12.2-.36-.61-.35-.89.31-1.22,1.25-.64,1.23-.69,1.93.53q9.21,15.95,18.43,31.86c.31.53.36.79-.26,1.11s-1.73.6-2,1.31.17,1.52.3,2.29c.17,1,.33,2,.55,3a.65.65,0,0,1-.43.88,6.75,6.75,0,0,0-.82.48c-1.31.75-1.31.75-.53,2.09,2.31,4,4.6,8,6.93,12,.32.54.4.82-.26,1.16-1.32.68-1.29.73-2-.56q-3.51-6.06-7-12.14c-.31-.54-.53-.6-1-.27-.8.51-1.72,1.38-2.48,1.28s-1.5-1.16-2.25-1.8l-.19-.18c-.67-.59-1.28-1.5-2.05-1.67s-1.52.69-2.25,1.14c-.56.35-.67,0-.87-.37q-8.66-15-17.33-30c-1.45-2.51-2.92-5-4.35-7.54-.28-.5-.48-.65-1-.29-.92.6-1.91,1.09-2.85,1.67-.42.27-.61.19-.85-.23-.84-1.43-.86-1.42.55-2.23C8.79,25.5,11,24.21,13.22,23c.47-.27.59-.46.28-1Q11,17.64,8.45,13.25c-.23-.41-.41-.42-.78-.2-1.29.77-2.61,1.5-3.9,2.28-.42.25-.65.32-.94-.2C2,13.55,1.06,12,.14,10.46c-.24-.4-.17-.57.22-.79Q8.61,4.92,16.86.14c.39-.23.56-.18.78.21.88,1.57,1.77,3.13,2.7,4.68.25.41.23.6-.22.84-1.32.73-2.61,1.52-3.93,2.24-.47.26-.51.47-.24.93,1.7,2.88,3.37,5.76,5,8.67.27.48.47.51.92.25,2.48-1.46,5-2.87,7.44-4.34.5-.29.7-.21,1,.27.77,1.37.79,1.36-.52,2.12-.76.44-1.5.89-2.27,1.3-.36.19-.44.35-.21.72.37.56.65,1.17,1,1.72s.13.58-.23.8c-1.43.88-1.42.89-2.27-.57-.73-1.27-.73-1.27-2-.52s-1.33.78-.53,2.17Q28,29.85,32.71,38.07a6.15,6.15,0,0,1-2.85-.37c0-.09,0-.17-.15-.16h0a.33.33,0,0,0,0-.17q-4.48-7.78-9-15.57c-.23-.39-.42-.34-.75-.14-.81.5-1.63,1-2.48,1.42-.48.25-.51.45-.24.91,1.49,2.52,3,5,4.4,7.59a15.84,15.84,0,0,1,1.43,2.66l-3-.7c-1.32-2.3-2.64-4.61-4-6.91-.39-.67-.64-1.8-1.23-1.88s-1.38.68-2.1,1c-.42.21-.44.4-.21.79,1.37,2.32,2.71,4.65,4.06,7q6.38,11.06,12.73,22.11c.24.41.4.49.85.23Q36.08,52.49,42,49.14c.52-.3.42-.52.18-.92-1.2-2.06-2.36-4.14-3.58-6.18C37.65,40.52,36.88,38.92,35.83,37.49Zm7.76,13.32-.53.29q-5.79,3.36-11.6,6.69c-.52.29-.5.5-.25,1,.33.66.65.85,1.26.35a5.14,5.14,0,0,1,.75-.45c1.57-.9,1.56-.9,2.38.72.17.33.15.48-.18.65-.67.35-1.29.82-2,1.11s-.44.65-.21,1.11.47.64,1,.31Q40,59.22,45.71,56c.51-.29.63-.49.32-1s-.68-.76-1.24-.29a4.89,4.89,0,0,1-.67.39c-1.55.9-1.54.89-2.36-.72-.18-.35-.12-.49.2-.66.69-.38,1.36-.78,2-1.17.18-.11.48-.18.29-.51S43.83,51.2,43.59,50.81Zm-30-41.14-.16.07c-1,.58-2,1.17-3,1.74-.34.19-.13.38,0,.57q2.6,4.47,5.18,9c.17.29.3.43.66.21.89-.55,1.8-1.06,2.71-1.56.34-.19.37-.34.17-.68q-2.61-4.47-5.18-9C13.82,9.88,13.77,9.71,13.57,9.67Zm3.79-5.09A6.35,6.35,0,0,1,17,4c-.31-.78-.68-.89-1.44-.4-1.66,1.06-3.4,2-5.11,3C8.22,7.82,6,9.15,3.7,10.41c-.59.33-.65.63-.25,1.11a1.56,1.56,0,0,1,.26.45c.18.42.41.46.8.23Q10.75,8.57,17,5C17.15,4.88,17.4,4.85,17.36,4.58Zm20.38,58.7c.8.72,1.54,1.37,2.25,2a.49.49,0,0,0,.69.07q2.05-1.22,4.14-2.4a.59.59,0,0,0,.33-.71c-.17-.82-.34-1.64-.47-2.47-.06-.35-.13-.47-.48-.26C42.08,60.79,40,62,37.74,63.28Z"/><path class="cls-2" d="M20.13,33.54l3,.7v0c0,.12.07.14.15.18A21.18,21.18,0,0,1,26.4,36a10.06,10.06,0,0,0,3.32,1.58h0l.15.16a6.15,6.15,0,0,0,2.85.37,8,8,0,0,0,3.12-.58c1.05,1.43,1.82,3,2.72,4.55,1.22,2,2.38,4.12,3.58,6.18.24.4.34.62-.18.92q-5.87,3.34-11.69,6.75c-.45.26-.61.18-.85-.23Q23.07,44.59,16.68,33.55ZM34.68,45.46a7.8,7.8,0,0,0-1-1.66A5.09,5.09,0,0,0,32,44.89a7,7,0,0,0,1,1.66A5.83,5.83,0,0,0,34.68,45.46ZM33.52,51a6.14,6.14,0,0,0-1.07-1.63,6,6,0,0,0-1.67,1,5.12,5.12,0,0,0,1.11,1.69A6.58,6.58,0,0,0,33.52,51Zm-5.68-6.45A5.65,5.65,0,0,0,26.77,43,4.85,4.85,0,0,0,25.15,44a3.87,3.87,0,0,0,1.1,1.65A4.88,4.88,0,0,0,27.84,44.57Z"/><path class="cls-2" d="M17.36,4.58c0,.27-.21.3-.36.39Q10.76,8.59,4.51,12.2c-.39.23-.62.19-.8-.23a1.56,1.56,0,0,0-.26-.45c-.4-.48-.34-.78.25-1.11C6,9.15,8.22,7.82,10.48,6.52c1.71-1,3.45-1.91,5.11-3,.76-.49,1.13-.38,1.44.4A6.35,6.35,0,0,0,17.36,4.58Z"/><path class="cls-2" d="M37.74,63.28C40,62,42.08,60.79,44.2,59.55c.35-.21.42-.09.48.26.13.83.3,1.65.47,2.47a.59.59,0,0,1-.33.71q-2.09,1.18-4.14,2.4a.49.49,0,0,1-.69-.07C39.28,64.65,38.54,64,37.74,63.28Z"/><path class="cls-3" d="M29.86,37.7l-.15-.16C29.82,37.53,29.85,37.61,29.86,37.7Z"/><path class="cls-4" d="M34.68,45.46A5.83,5.83,0,0,1,33,46.55a7,7,0,0,1-1-1.66,5.09,5.09,0,0,1,1.67-1.09A7.8,7.8,0,0,1,34.68,45.46Z"/><path class="cls-4" d="M33.52,51a6.58,6.58,0,0,1-1.63,1.07,5.12,5.12,0,0,1-1.11-1.69,6,6,0,0,1,1.67-1A6.14,6.14,0,0,1,33.52,51Z"/><path class="cls-4" d="M27.84,44.57a4.88,4.88,0,0,1-1.59,1.1A3.87,3.87,0,0,1,25.15,44,4.85,4.85,0,0,1,26.77,43,5.65,5.65,0,0,1,27.84,44.57Z"/><path class="cls-4" d="M23.08,34.22l.15.18C23.15,34.36,23.05,34.34,23.08,34.22Z"/></g></g></svg>